<svg version="1.1" viewBox="0.0 0.0 960.0 540.0" fill="none" stroke="none" stroke-linecap="square" stroke-miterlimit="10" xmlns:xlink="http://www.w3.org/1999/xlink" xmlns="http://www.w3.org/2000/svg"><clipPath id="g37a605a2d78_1_21.0"><path d="m0 0l960.0 0l0 540.0l-960.0 0l0 -540.0z" clip-rule="nonzero"/></clipPath><g clip-path="url(#g37a605a2d78_1_21.0)"><path fill="#ffffff" d="m0 0l960.0 0l0 540.0l-960.0 0z" fill-rule="evenodd"/><path fill="#000000" fill-opacity="0.0" d="m32.72441 46.721786l894.55115 0l0 60.125984l-894.55115 0z" fill-rule="evenodd"/><path fill="#000000" d="m43.240036 80.25903l3.0 -0.265625q0.203125 1.796875 0.984375 2.953125q0.78125 1.15625 2.421875 1.875q1.640625 0.71875 3.6875 0.71875q1.828125 0 3.21875 -0.546875q1.390625 -0.546875 2.0625 -1.484375q0.6875 -0.9375 0.6875 -2.0625q0 -1.125 -0.65625 -1.96875q-0.65625 -0.84375 -2.15625 -1.421875q-0.96875 -0.375 -4.28125 -1.171875q-3.3125 -0.796875 -4.640625 -1.5q-1.71875 -0.90625 -2.578125 -2.234375q-0.84375 -1.34375 -0.84375 -3.0q0 -1.828125 1.03125 -3.40625q1.046875 -1.578125 3.03125 -2.390625q1.984375 -0.828125 4.40625 -0.828125q2.671875 0 4.71875 0.859375q2.046875 0.859375 3.140625 2.53125q1.09375 1.671875 1.1875 3.796875l-3.0625 0.21875q-0.234375 -2.28125 -1.65625 -3.4375q-1.421875 -1.171875 -4.203125 -1.171875q-2.875 0 -4.203125 1.0625q-1.3125 1.0625 -1.3125 2.546875q0 1.296875 0.9375 2.140625q0.90625 0.828125 4.78125 1.71875q3.890625 0.875 5.328125 1.53125q2.109375 0.953125 3.109375 2.453125q1.0 1.484375 1.0 3.40625q0 1.921875 -1.109375 3.625q-1.09375 1.703125 -3.15625 2.640625q-2.046875 0.9375 -4.625 0.9375q-3.265625 0 -5.484375 -0.953125q-2.203125 -0.953125 -3.453125 -2.859375q-1.25 -1.90625 -1.3125 -4.3125zm23.109894 7.71875l0 -24.046875l2.953125 0l0 8.625q2.0625 -2.390625 5.21875 -2.390625q1.921875 0 3.34375 0.765625q1.4375 0.765625 2.046875 2.109375q0.625 1.34375 0.625 3.890625l0 11.046875l-2.953125 0l0 -11.046875q0 -2.203125 -0.96875 -3.203125q-0.953125 -1.015625 -2.703125 -1.015625q-1.3125 0 -2.46875 0.6875q-1.15625 0.671875 -1.65625 1.84375q-0.484375 1.15625 -0.484375 3.203125l0 9.53125l-2.953125 0zm30.042618 -2.15625q-1.640625 1.40625 -3.15625 1.984375q-1.515625 0.5625 -3.25 0.5625q-2.875 0 -4.421875 -1.390625q-1.53125 -1.40625 -1.53125 -3.59375q0 -1.28125 0.578125 -2.328125q0.578125 -1.0625 1.515625 -1.703125q0.953125 -0.640625 2.140625 -0.96875q0.859375 -0.234375 2.625 -0.4375q3.5625 -0.4375 5.25 -1.03125q0.03125 -0.59375 0.03125 -0.765625q0 -1.796875 -0.84375 -2.546875q-1.125 -1.0 -3.359375 -1.0q-2.09375 0 -3.09375 0.734375q-0.984375 0.734375 -1.453125 2.578125l-2.890625 -0.390625q0.390625 -1.84375 1.296875 -2.984375q0.90625 -1.140625 2.609375 -1.75q1.703125 -0.625 3.953125 -0.625q2.234375 0 3.625 0.53125q1.390625 0.515625 2.046875 1.3125q0.65625 0.796875 0.921875 2.015625q0.15625 0.75 0.15625 2.71875l0 3.9375q0 4.109375 0.1875 5.203125q0.1875 1.09375 0.734375 2.09375l-3.078125 0q-0.453125 -0.921875 -0.59375 -2.15625zm-0.25 -6.59375q-1.59375 0.65625 -4.8125 1.125q-1.828125 0.265625 -2.578125 0.59375q-0.75 0.328125 -1.171875 0.953125q-0.40625 0.625 -0.40625 1.40625q0 1.171875 0.890625 1.96875q0.90625 0.78125 2.625 0.78125q1.703125 0 3.03125 -0.734375q1.328125 -0.75 1.953125 -2.046875q0.46875 -1.0 0.46875 -2.953125l0 -1.09375zm7.542618 8.75l0 -17.421875l2.65625 0l0 2.640625q1.015625 -1.859375 1.875 -2.4375q0.859375 -0.59375 1.890625 -0.59375q1.5 0 3.03125 0.953125l-1.015625 2.734375q-1.078125 -0.640625 -2.15625 -0.640625q-0.96875 0 -1.75 0.59375q-0.765625 0.578125 -1.09375 1.609375q-0.484375 1.578125 -0.484375 3.4375l0 9.125l-2.953125 0zm11.233856 -20.65625l0 -3.390625l2.953125 0l0 3.390625l-2.953125 0zm0 20.65625l0 -17.421875l2.953125 0l0 17.421875l-2.953125 0zm7.44783 0l0 -17.421875l2.65625 0l0 2.484375q1.921875 -2.875 5.546875 -2.875q1.5625 0 2.875 0.5625q1.328125 0.5625 1.984375 1.484375q0.65625 0.921875 0.921875 2.1875q0.171875 0.8125 0.171875 2.859375l0 10.71875l-2.953125 0l0 -10.59375q0 -1.8125 -0.34375 -2.703125q-0.34375 -0.890625 -1.234375 -1.421875q-0.875 -0.53125 -2.046875 -0.53125q-1.890625 0 -3.265625 1.203125q-1.359375 1.1875 -1.359375 4.53125l0 9.515625l-2.953125 0zm18.136368 1.4375l2.875 0.4375q0.171875 1.328125 1.0 1.9375q1.09375 0.8125 3.0 0.8125q2.046875 0 3.15625 -0.828125q1.125 -0.8125 1.515625 -2.28125q0.234375 -0.90625 0.21875 -3.796875q-1.9375 2.28125 -4.828125 2.28125q-3.59375 0 -5.5625 -2.59375q-1.96875 -2.59375 -1.96875 -6.21875q0 -2.484375 0.90625 -4.59375q0.90625 -2.109375 2.609375 -3.25q1.71875 -1.15625 4.03125 -1.15625q3.09375 0 5.09375 2.484375l0 -2.09375l2.71875 0l0 15.0625q0 4.0625 -0.828125 5.75q-0.828125 1.703125 -2.625 2.6875q-1.796875 0.984375 -4.421875 0.984375q-3.109375 0 -5.03125 -1.40625q-1.921875 -1.390625 -1.859375 -4.21875zm2.453125 -10.453125q0 3.421875 1.359375 5.0q1.359375 1.578125 3.40625 1.578125q2.03125 0 3.40625 -1.5625q1.390625 -1.578125 1.390625 -4.921875q0 -3.203125 -1.421875 -4.828125q-1.421875 -1.625 -3.421875 -1.625q-1.96875 0 -3.34375 1.609375q-1.375 1.59375 -1.375 4.75zm25.407288 1.296875l3.0 -0.265625q0.203125 1.796875 0.984375 2.953125q0.78125 1.15625 2.421875 1.875q1.640625 0.71875 3.6875 0.71875q1.828125 0 3.21875 -0.546875q1.390625 -0.546875 2.0625 -1.484375q0.6875 -0.9375 0.6875 -2.0625q0 -1.125 -0.65625 -1.96875q-0.65625 -0.84375 -2.15625 -1.421875q-0.96875 -0.375 -4.28125 -1.171875q-3.3125 -0.796875 -4.640625 -1.5q-1.71875 -0.90625 -2.578125 -2.234375q-0.84375 -1.34375 -0.84375 -3.0q0 -1.828125 1.03125 -3.40625q1.046875 -1.578125 3.03125 -2.390625q1.984375 -0.828125 4.40625 -0.828125q2.671875 0 4.71875 0.859375q2.046875 0.859375 3.140625 2.53125q1.09375 1.671875 1.1875 3.796875l-3.0625 0.21875q-0.234375 -2.28125 -1.65625 -3.4375q-1.421875 -1.171875 -4.203125 -1.171875q-2.875 0 -4.203125 1.0625q-1.3125 1.0625 -1.3125 2.546875q0 1.296875 0.9375 2.140625q0.90625 0.828125 4.78125 1.71875q3.890625 0.875 5.328125 1.53125q2.109375 0.953125 3.109375 2.453125q1.0 1.484375 1.0 3.40625q0 1.921875 -1.109375 3.625q-1.09375 1.703125 -3.15625 2.640625q-2.046875 0.9375 -4.625 0.9375q-3.265625 0 -5.484375 -0.953125q-2.203125 -0.953125 -3.453125 -2.859375q-1.25 -1.90625 -1.3125 -4.3125zm29.547394 5.078125l0.4375 2.609375q-1.25 0.265625 -2.234375 0.265625q-1.609375 0 -2.5 -0.5q-0.875 -0.515625 -1.25 -1.34375q-0.359375 -0.828125 -0.359375 -3.484375l0 -10.03125l-2.15625 0l0 -2.296875l2.15625 0l0 -4.3125l2.9375 -1.765625l0 6.078125l2.96875 0l0 2.296875l-2.96875 0l0 10.1875q0 1.265625 0.15625 1.625q0.15625 0.359375 0.5 0.578125q0.359375 0.203125 1.015625 0.203125q0.5 0 1.296875 -0.109375zm14.255295 0.484375q-1.640625 1.40625 -3.15625 1.984375q-1.515625 0.5625 -3.25 0.5625q-2.875 0 -4.421875 -1.390625q-1.53125 -1.40625 -1.53125 -3.59375q0 -1.28125 0.578125 -2.328125q0.578125 -1.0625 1.515625 -1.703125q0.953125 -0.640625 2.140625 -0.96875q0.859375 -0.234375 2.625 -0.4375q3.5625 -0.4375 5.25 -1.03125q0.03125 -0.59375 0.03125 -0.765625q0 -1.796875 -0.84375 -2.546875q-1.125 -1.0 -3.359375 -1.0q-2.09375 0 -3.09375 0.734375q-0.984375 0.734375 -1.453125 2.578125l-2.890625 -0.390625q0.390625 -1.84375 1.296875 -2.984375q0.90625 -1.140625 2.609375 -1.75q1.703125 -0.625 3.953125 -0.625q2.234375 0 3.625 0.53125q1.390625 0.515625 2.046875 1.3125q0.65625 0.796875 0.921875 2.015625q0.15625 0.75 0.15625 2.71875l0 3.9375q0 4.109375 0.1875 5.203125q0.1875 1.09375 0.734375 2.09375l-3.078125 0q-0.453125 -0.921875 -0.59375 -2.15625zm-0.25 -6.59375q-1.59375 0.65625 -4.8125 1.125q-1.828125 0.265625 -2.578125 0.59375q-0.75 0.328125 -1.171875 0.953125q-0.40625 0.625 -0.40625 1.40625q0 1.171875 0.890625 1.96875q0.90625 0.78125 2.625 0.78125q1.703125 0 3.03125 -0.734375q1.328125 -0.75 1.953125 -2.046875q0.46875 -1.0 0.46875 -2.953125l0 -1.09375zm14.011368 6.109375l0.4375 2.609375q-1.25 0.265625 -2.234375 0.265625q-1.609375 0 -2.5 -0.5q-0.875 -0.515625 -1.25 -1.34375q-0.359375 -0.828125 -0.359375 -3.484375l0 -10.03125l-2.15625 0l0 -2.296875l2.15625 0l0 -4.3125l2.9375 -1.765625l0 6.078125l2.96875 0l0 2.296875l-2.96875 0l0 10.1875q0 1.265625 0.15625 1.625q0.15625 0.359375 0.5 0.578125q0.359375 0.203125 1.015625 0.203125q0.5 0 1.296875 -0.109375zm14.817795 -2.96875l3.046875 0.375q-0.71875 2.671875 -2.671875 4.15625q-1.953125 1.46875 -4.984375 1.46875q-3.828125 0 -6.0625 -2.34375q-2.234375 -2.359375 -2.234375 -6.609375q0 -4.390625 2.25 -6.8125q2.265625 -2.4375 5.875 -2.4375q3.5 0 5.703125 2.375q2.21875 2.375 2.21875 6.6875q0 0.265625 -0.015625 0.796875l-12.984375 0q0.15625 2.875 1.609375 4.40625q1.46875 1.515625 3.65625 1.515625q1.625 0 2.765625 -0.84375q1.15625 -0.859375 1.828125 -2.734375zm-9.703125 -4.78125l9.734375 0q-0.203125 -2.1875 -1.109375 -3.296875q-1.421875 -1.703125 -3.65625 -1.703125q-2.046875 0 -3.4375 1.375q-1.375 1.359375 -1.53125 3.625zm21.678375 10.390625l9.234375 -24.046875l3.421875 0l9.84375 24.046875l-3.625 0l-2.796875 -7.28125l-10.0625 0l-2.640625 7.28125l-3.375 0zm6.9375 -9.875l8.15625 0l-2.515625 -6.65625q-1.140625 -3.03125 -1.703125 -4.984375q-0.46875 2.3125 -1.296875 4.59375l-2.640625 7.046875zm29.094238 3.5l2.90625 0.375q-0.46875 3.0 -2.4375 4.703125q-1.9530945 1.6875 -4.8124695 1.6875q-3.578125 0 -5.75 -2.328125q-2.171875 -2.34375 -2.171875 -6.703125q0 -2.828125 0.9375 -4.9375q0.9375 -2.125 2.84375 -3.171875q1.90625 -1.0625 4.15625 -1.0625q2.84375 0 4.6405945 1.4375q1.8125 1.4375 2.3125 4.078125l-2.8749695 0.4375q-0.40625 -1.75 -1.453125 -2.640625q-1.03125 -0.890625 -2.515625 -0.890625q-2.21875 0 -3.625 1.609375q-1.390625 1.59375 -1.390625 5.0625q0 3.5 1.34375 5.09375q1.34375 1.59375 3.515625 1.59375q1.734375 0 2.890625 -1.0625q1.171875 -1.078125 1.4843445 -3.28125zm5.40625 6.375l0 -17.421875l2.65625 0l0 2.640625q1.015625 -1.859375 1.875 -2.4375q0.859375 -0.59375 1.890625 -0.59375q1.5 0 3.03125 0.953125l-1.015625 2.734375q-1.078125 -0.640625 -2.15625 -0.640625q-0.96875 0 -1.75 0.59375q-0.765625 0.578125 -1.09375 1.609375q-0.484375 1.578125 -0.484375 3.4375l0 9.125l-2.953125 0zm10.108887 -8.703125q0 -4.84375 2.703125 -7.171875q2.234375 -1.9375 5.46875 -1.9375q3.59375 0 5.875 2.359375q2.28125 2.34375 2.28125 6.5q0 3.359375 -1.015625 5.296875q-1.0 1.921875 -2.9375 2.984375q-1.921875 1.0625 -4.203125 1.0625q-3.65625 0 -5.921875 -2.34375q-2.25 -2.34375 -2.25 -6.75zm3.046875 0q0 3.34375 1.453125 5.015625q1.453125 1.65625 3.671875 1.65625q2.203125 0 3.65625 -1.671875q1.46875 -1.671875 1.46875 -5.109375q0 -3.234375 -1.46875 -4.890625q-1.46875 -1.671875 -3.65625 -1.671875q-2.21875 0 -3.671875 1.65625q-1.453125 1.65625 -1.453125 5.015625zm15.558228 3.5l2.921875 -0.453125q0.25 1.75 1.375 2.6875q1.125 0.9375 3.140625 0.9375q2.03125 0 3.015625 -0.828125q0.984375 -0.828125 0.984375 -1.953125q0 -1.0 -0.875 -1.5625q-0.609375 -0.40625 -3.015625 -1.0q-3.25 -0.828125 -4.5 -1.421875q-1.25 -0.609375 -1.90625 -1.65625q-0.640625 -1.0625 -0.640625 -2.34375q0 -1.15625 0.53125 -2.140625q0.53125 -1.0 1.453125 -1.65625q0.6875 -0.515625 1.875 -0.859375q1.1875 -0.359375 2.546875 -0.359375q2.046875 0 3.59375 0.59375q1.5625 0.578125 2.296875 1.59375q0.734375 1.015625 1.015625 2.703125l-2.890625 0.390625q-0.1875 -1.34375 -1.140625 -2.09375q-0.9375 -0.765625 -2.65625 -0.765625q-2.03125 0 -2.90625 0.671875q-0.875 0.671875 -0.875 1.578125q0 0.578125 0.359375 1.03125q0.359375 0.484375 1.140625 0.796875q0.4375 0.15625 2.609375 0.75q3.125 0.828125 4.359375 1.375q1.25 0.53125 1.953125 1.546875q0.703125 1.015625 0.703125 2.515625q0 1.484375 -0.859375 2.796875q-0.859375 1.296875 -2.484375 2.015625q-1.625 0.703125 -3.671875 0.703125q-3.40625 0 -5.1875 -1.40625q-1.765625 -1.40625 -2.265625 -4.1875zm16.796875 0l2.921875 -0.453125q0.25 1.75 1.375 2.6875q1.125 0.9375 3.140625 0.9375q2.03125 0 3.015625 -0.828125q0.984375 -0.828125 0.984375 -1.953125q0 -1.0 -0.875 -1.5625q-0.609375 -0.40625 -3.015625 -1.0q-3.25 -0.828125 -4.5 -1.421875q-1.25 -0.609375 -1.90625 -1.65625q-0.640625 -1.0625 -0.640625 -2.34375q0 -1.15625 0.53125 -2.140625q0.53125 -1.0 1.453125 -1.65625q0.6875 -0.515625 1.875 -0.859375q1.1875 -0.359375 2.546875 -0.359375q2.046875 0 3.59375 0.59375q1.5625 0.578125 2.296875 1.59375q0.734375 1.015625 1.015625 2.703125l-2.890625 0.390625q-0.1875 -1.34375 -1.140625 -2.09375q-0.9375 -0.765625 -2.65625 -0.765625q-2.03125 0 -2.90625 0.671875q-0.875 0.671875 -0.875 1.578125q0 0.578125 0.359375 1.03125q0.359375 0.484375 1.140625 0.796875q0.4375 0.15625 2.609375 0.75q3.125 0.828125 4.359375 1.375q1.25 0.53125 1.953125 1.546875q0.703125 1.015625 0.703125 2.515625q0 1.484375 -0.859375 2.796875q-0.859375 1.296875 -2.484375 2.015625q-1.625 0.703125 -3.671875 0.703125q-3.40625 0 -5.1875 -1.40625q-1.765625 -1.40625 -2.265625 -4.1875zm27.59906 5.203125l0 -24.046875l4.78125 0l5.6875 17.03125q0.796875 2.375 1.15625 3.546875q0.40625 -1.296875 1.28125 -3.84375l5.75 -16.734375l4.28125 0l0 24.046875l-3.0625 0l0 -20.125l-6.984375 20.125l-2.875 0l-6.953125 -20.46875l0 20.46875l-3.0625 0zm39.108856 0l0 -2.5625q-2.03125 2.953125 -5.515625 2.953125q-1.546875 0 -2.890625 -0.578125q-1.328125 -0.59375 -1.984375 -1.484375q-0.640625 -0.90625 -0.90625 -2.203125q-0.171875 -0.859375 -0.171875 -2.75l0 -10.796875l2.9375 0l0 9.65625q0 2.3125 0.1875 3.125q0.28125 1.15625 1.171875 1.828125q0.90625 0.65625 2.234375 0.65625q1.328125 0 2.5 -0.671875q1.171875 -0.6875 1.640625 -1.859375q0.484375 -1.171875 0.484375 -3.40625l0 -9.328125l2.953125 0l0 17.421875l-2.640625 0zm7.214508 0l0 -24.046875l2.9375 0l0 24.046875l-2.9375 0zm13.96344 -2.640625l0.4375 2.609375q-1.25 0.265625 -2.234375 0.265625q-1.609375 0 -2.5 -0.5q-0.875 -0.515625 -1.25 -1.34375q-0.359375 -0.828125 -0.359375 -3.484375l0 -10.03125l-2.15625 0l0 -2.296875l2.15625 0l0 -4.3125l2.9375 -1.765625l0 6.078125l2.96875 0l0 2.296875l-2.96875 0l0 10.1875q0 1.265625 0.15625 1.625q0.15625 0.359375 0.5 0.578125q0.359375 0.203125 1.015625 0.203125q0.5 0 1.296875 -0.109375zm2.91156 -18.015625l0 -3.390625l2.953125 0l0 3.390625l-2.953125 0zm0 20.65625l0 -17.421875l2.953125 0l0 17.421875l-2.953125 0zm7.447815 6.671875l0 -24.09375l2.6875 0l0 2.265625q0.953125 -1.328125 2.140625 -1.984375q1.203125 -0.671875 2.90625 -0.671875q2.234375 0 3.9375 1.15625q1.703125 1.140625 2.578125 3.234375q0.875 2.09375 0.875 4.578125q0 2.671875 -0.96875 4.8125q-0.953125 2.140625 -2.78125 3.28125q-1.828125 1.140625 -3.84375 1.140625q-1.484375 0 -2.65625 -0.625q-1.171875 -0.625 -1.921875 -1.5625l0 8.46875l-2.953125 0zm2.671875 -15.28125q0 3.359375 1.359375 4.96875q1.359375 1.609375 3.296875 1.609375q1.96875 0 3.359375 -1.65625q1.40625 -1.671875 1.40625 -5.171875q0 -3.328125 -1.375 -4.984375q-1.359375 -1.65625 -3.265625 -1.65625q-1.875 0 -3.328125 1.765625q-1.453125 1.765625 -1.453125 5.125zm15.948853 8.609375l0 -24.046875l2.9375 0l0 24.046875l-2.9375 0zm19.447815 -5.609375l3.046875 0.375q-0.71875 2.671875 -2.671875 4.15625q-1.953125 1.46875 -4.984375 1.46875q-3.828125 0 -6.0625 -2.34375q-2.234375 -2.359375 -2.234375 -6.609375q0 -4.390625 2.25 -6.8125q2.265625 -2.4375 5.875 -2.4375q3.5 0 5.703125 2.375q2.21875 2.375 2.21875 6.6875q0 0.265625 -0.015625 0.796875l-12.984375 0q0.15625 2.875 1.609375 4.40625q1.46875 1.515625 3.65625 1.515625q1.625 0 2.765625 -0.84375q1.15625 -0.859375 1.828125 -2.734375zm-9.703125 -4.78125l9.734375 0q-0.203125 -2.1875 -1.109375 -3.296875q-1.421875 -1.703125 -3.65625 -1.703125q-2.046875 0 -3.4375 1.375q-1.375 1.359375 -1.53125 3.625zm43.329163 1.953125l3.1875305 0.8125q-1.0000305 3.921875 -3.6094055 5.984375q-2.59375 2.046875 -6.359375 2.046875q-3.875 0 -6.3125 -1.578125q-2.4375 -1.578125 -3.71875 -4.578125q-1.265625 -3.015625 -1.265625 -6.453125q0 -3.75 1.4375 -6.546875q1.4375 -2.796875 4.078125 -4.25q2.65625 -1.453125 5.84375 -1.453125q3.609375 0 6.0625 1.84375q2.453125 1.828125 3.4219055 5.15625l-3.1250305 0.734375q-0.84375 -2.625 -2.4375 -3.8125q-1.578125 -1.203125 -4.0 -1.203125q-2.765625 0 -4.625 1.328125q-1.859375 1.328125 -2.625 3.578125q-0.75 2.234375 -0.75 4.609375q0 3.0625 0.890625 5.359375q0.890625 2.28125 2.78125 3.421875q1.890625 1.125 4.09375 1.125q2.671875 0 4.515625 -1.53125q1.859375 -1.546875 2.515625 -4.59375zm5.6197205 -0.265625q0 -4.84375 2.703125 -7.171875q2.234375 -1.9375 5.46875 -1.9375q3.59375 0 5.875 2.359375q2.28125 2.34375 2.28125 6.5q0 3.359375 -1.015625 5.296875q-1.0 1.921875 -2.9375 2.984375q-1.921875 1.0625 -4.203125 1.0625q-3.65625 0 -5.921875 -2.34375q-2.25 -2.34375 -2.25 -6.75zm3.046875 0q0 3.34375 1.453125 5.015625q1.453125 1.65625 3.671875 1.65625q2.203125 0 3.65625 -1.671875q1.46875 -1.671875 1.46875 -5.109375q0 -3.234375 -1.46875 -4.890625q-1.46875 -1.671875 -3.65625 -1.671875q-2.21875 0 -3.671875 1.65625q-1.453125 1.65625 -1.453125 5.015625zm16.745728 8.703125l0 -17.421875l2.640625 0l0 2.453125q0.8125 -1.28125 2.171875 -2.0625q1.375 -0.78125 3.109375 -0.78125q1.9375 0 3.171875 0.8125q1.234375 0.796875 1.75 2.234375q2.0625 -3.046875 5.375 -3.046875q2.59375 0 3.984375 1.4375q1.390625 1.4375 1.390625 4.421875l0 11.953125l-2.9375 0l0 -10.96875q0 -1.78125 -0.28125 -2.546875q-0.28125 -0.78125 -1.046875 -1.25q-0.75 -0.484375 -1.765625 -0.484375q-1.84375 0 -3.0625 1.21875q-1.203125 1.21875 -1.203125 3.90625l0 10.125l-2.953125 0l0 -11.3125q0 -1.96875 -0.71875 -2.953125q-0.71875 -0.984375 -2.359375 -0.984375q-1.25 0 -2.3125 0.65625q-1.046875 0.65625 -1.53125 1.921875q-0.46875 1.25 -0.46875 3.640625l0 9.03125l-2.953125 0zm27.983826 6.671875l0 -24.09375l2.6875 0l0 2.265625q0.953125 -1.328125 2.140625 -1.984375q1.203125 -0.671875 2.90625 -0.671875q2.234375 0 3.9375 1.15625q1.703125 1.140625 2.578125 3.234375q0.875 2.09375 0.875 4.578125q0 2.671875 -0.96875 4.8125q-0.953125 2.140625 -2.78125 3.28125q-1.828125 1.140625 -3.84375 1.140625q-1.484375 0 -2.65625 -0.625q-1.171875 -0.625 -1.921875 -1.5625l0 8.46875l-2.953125 0zm2.671875 -15.28125q0 3.359375 1.359375 4.96875q1.359375 1.609375 3.296875 1.609375q1.96875 0 3.359375 -1.65625q1.40625 -1.671875 1.40625 -5.171875q0 -3.328125 -1.375 -4.984375q-1.359375 -1.65625 -3.265625 -1.65625q-1.875 0 -3.328125 1.765625q-1.453125 1.765625 -1.453125 5.125zm14.901978 -0.09375q0 -4.84375 2.703125 -7.171875q2.234375 -1.9375 5.46875 -1.9375q3.59375 0 5.875 2.359375q2.28125 2.34375 2.28125 6.5q0 3.359375 -1.015625 5.296875q-1.0 1.921875 -2.9375 2.984375q-1.921875 1.0625 -4.203125 1.0625q-3.65625 0 -5.921875 -2.34375q-2.25 -2.34375 -2.25 -6.75zm3.046875 0q0 3.34375 1.453125 5.015625q1.453125 1.65625 3.671875 1.65625q2.203125 0 3.65625 -1.671875q1.46875 -1.671875 1.46875 -5.109375q0 -3.234375 -1.46875 -4.890625q-1.46875 -1.671875 -3.65625 -1.671875q-2.21875 0 -3.671875 1.65625q-1.453125 1.65625 -1.453125 5.015625zm16.745728 8.703125l0 -17.421875l2.65625 0l0 2.484375q1.921875 -2.875 5.546875 -2.875q1.5625 0 2.875 0.5625q1.328125 0.5625 1.984375 1.484375q0.65625 0.921875 0.921875 2.1875q0.171875 0.8125 0.171875 2.859375l0 10.71875l-2.953125 0l0 -10.59375q0 -1.8125 -0.34375 -2.703125q-0.34375 -0.890625 -1.234375 -1.421875q-0.875 -0.53125 -2.046875 -0.53125q-1.890625 0 -3.265625 1.203125q-1.359375 1.1875 -1.359375 4.53125l0 9.515625l-2.953125 0zm30.605103 -5.609375l3.046875 0.375q-0.71875 2.671875 -2.671875 4.15625q-1.953125 1.46875 -4.984375 1.46875q-3.828125 0 -6.0625 -2.34375q-2.234375 -2.359375 -2.234375 -6.609375q0 -4.390625 2.25 -6.8125q2.265625 -2.4375 5.875 -2.4375q3.5 0 5.703125 2.375q2.21875 2.375 2.21875 6.6875q0 0.265625 -0.015625 0.796875l-12.984375 0q0.15625 2.875 1.609375 4.40625q1.46875 1.515625 3.65625 1.515625q1.625 0 2.765625 -0.84375q1.15625 -0.859375 1.828125 -2.734375zm-9.703125 -4.78125l9.734375 0q-0.203125 -2.1875 -1.109375 -3.296875q-1.421875 -1.703125 -3.65625 -1.703125q-2.046875 0 -3.4375 1.375q-1.375 1.359375 -1.53125 3.625zm16.464478 10.390625l0 -17.421875l2.65625 0l0 2.484375q1.921875 -2.875 5.546875 -2.875q1.5625 0 2.875 0.5625q1.328125 0.5625 1.984375 1.484375q0.65625 0.921875 0.921875 2.1875q0.171875 0.8125 0.171875 2.859375l0 10.71875l-2.953125 0l0 -10.59375q0 -1.8125 -0.34375 -2.703125q-0.34375 -0.890625 -1.234375 -1.421875q-0.875 -0.53125 -2.046875 -0.53125q-1.890625 0 -3.265625 1.203125q-1.359375 1.1875 -1.359375 4.53125l0 9.515625l-2.953125 0zm25.120728 -2.640625l0.4375 2.609375q-1.25 0.265625 -2.234375 0.265625q-1.609375 0 -2.5 -0.5q-0.875 -0.515625 -1.25 -1.34375q-0.359375 -0.828125 -0.359375 -3.484375l0 -10.03125l-2.15625 0l0 -2.296875l2.15625 0l0 -4.3125l2.9375 -1.765625l0 6.078125l2.96875 0l0 2.296875l-2.96875 0l0 10.1875q0 1.265625 0.15625 1.625q0.15625 0.359375 0.5 0.578125q0.359375 0.203125 1.015625 0.203125q0.5 0 1.296875 -0.109375zm1.708435 -2.5625l2.921875 -0.453125q0.25 1.75 1.375 2.6875q1.125 0.9375 3.140625 0.9375q2.03125 0 3.015625 -0.828125q0.984375 -0.828125 0.984375 -1.953125q0 -1.0 -0.875 -1.5625q-0.609375 -0.40625 -3.015625 -1.0q-3.25 -0.828125 -4.5 -1.421875q-1.25 -0.609375 -1.90625 -1.65625q-0.640625 -1.0625 -0.640625 -2.34375q0 -1.15625 0.53125 -2.140625q0.53125 -1.0 1.453125 -1.65625q0.6875 -0.515625 1.875 -0.859375q1.1875 -0.359375 2.546875 -0.359375q2.046875 0 3.59375 0.59375q1.5625 0.578125 2.296875 1.59375q0.734375 1.015625 1.015625 2.703125l-2.890625 0.390625q-0.1875 -1.34375 -1.140625 -2.09375q-0.9375 -0.765625 -2.65625 -0.765625q-2.03125 0 -2.90625 0.671875q-0.875 0.671875 -0.875 1.578125q0 0.578125 0.359375 1.03125q0.359375 0.484375 1.140625 0.796875q0.4375 0.15625 2.609375 0.75q3.125 0.828125 4.359375 1.375q1.25 0.53125 1.953125 1.546875q0.703125 1.015625 0.703125 2.515625q0 1.484375 -0.859375 2.796875q-0.859375 1.296875 -2.484375 2.015625q-1.625 0.703125 -3.671875 0.703125q-3.40625 0 -5.1875 -1.40625q-1.765625 -1.40625 -2.265625 -4.1875z" fill-rule="nonzero"/><path fill="#eeeeee" d="m197.37007 231.6063l0 0c0 -9.245331 8.072983 -16.740158 18.03151 -16.740158l0 0c9.958511 0 18.031494 7.4948273 18.031494 16.740158l0 0c0 9.245346 -8.072983 16.740158 -18.031494 16.740158l0 0c-9.958527 0 -18.03151 -7.494812 -18.03151 -16.740158z" fill-rule="evenodd"/><path stroke="#595959" stroke-width="1.0" stroke-linejoin="round" stroke-linecap="butt" d="m197.37007 231.6063l0 0c0 -9.245331 8.072983 -16.740158 18.03151 -16.740158l0 0c9.958511 0 18.031494 7.4948273 18.031494 16.740158l0 0c0 9.245346 -8.072983 16.740158 -18.031494 16.740158l0 0c-9.958527 0 -18.03151 -7.494812 -18.03151 -16.740158z" fill-rule="evenodd"/><path fill="#eeeeee" d="m152.54855 290.91602l0 0c0 -9.245331 8.072983 -16.740173 18.031494 -16.740173l0 0c9.958527 0 18.031494 7.4948425 18.031494 16.740173l0 0c0 9.245331 -8.072968 16.740143 -18.031494 16.740143l0 0c-9.958511 0 -18.031494 -7.494812 -18.031494 -16.740143z" fill-rule="evenodd"/><path stroke="#595959" stroke-width="1.0" stroke-linejoin="round" stroke-linecap="butt" d="m152.54855 290.91602l0 0c0 -9.245331 8.072983 -16.740173 18.031494 -16.740173l0 0c9.958527 0 18.031494 7.4948425 18.031494 16.740173l0 0c0 9.245331 -8.072968 16.740143 -18.031494 16.740143l0 0c-9.958511 0 -18.031494 -7.494812 -18.031494 -16.740143z" fill-rule="evenodd"/><path fill="#eeeeee" d="m233.98688 290.91602l0 0c0 -9.245331 8.072968 -16.740173 18.031494 -16.740173l0 0c9.958527 0 18.031494 7.4948425 18.031494 16.740173l0 0c0 9.245331 -8.072968 16.740143 -18.031494 16.740143l0 0c-9.958527 0 -18.031494 -7.494812 -18.031494 -16.740143z" fill-rule="evenodd"/><path stroke="#595959" stroke-width="1.0" stroke-linejoin="round" stroke-linecap="butt" d="m233.98688 290.91602l0 0c0 -9.245331 8.072968 -16.740173 18.031494 -16.740173l0 0c9.958527 0 18.031494 7.4948425 18.031494 16.740173l0 0c0 9.245331 -8.072968 16.740143 -18.031494 16.740143l0 0c-9.958527 0 -18.031494 -7.494812 -18.031494 -16.740143z" fill-rule="evenodd"/><path fill="#eeeeee" d="m270.04987 360.4252l0 0c0 -9.245331 8.072968 -16.740173 18.031494 -16.740173l0 0c9.958527 0 18.031494 7.4948425 18.031494 16.740173l0 0c0 9.245331 -8.072968 16.740143 -18.031494 16.740143l0 0c-9.958527 0 -18.031494 -7.494812 -18.031494 -16.740143z" fill-rule="evenodd"/><path stroke="#595959" stroke-width="1.0" stroke-linejoin="round" stroke-linecap="butt" d="m270.04987 360.4252l0 0c0 -9.245331 8.072968 -16.740173 18.031494 -16.740173l0 0c9.958527 0 18.031494 7.4948425 18.031494 16.740173l0 0c0 9.245331 -8.072968 16.740143 -18.031494 16.740143l0 0c-9.958527 0 -18.031494 -7.494812 -18.031494 -16.740143z" fill-rule="evenodd"/><path fill="#eeeeee" d="m191.27559 360.4252l0 0c0 -9.245331 8.072983 -16.740173 18.031494 -16.740173l0 0c9.958527 0 18.031494 7.4948425 18.031494 16.740173l0 0c0 9.245331 -8.072968 16.740143 -18.031494 16.740143l0 0c-9.958511 0 -18.031494 -7.494812 -18.031494 -16.740143z" fill-rule="evenodd"/><path stroke="#595959" stroke-width="1.0" stroke-linejoin="round" stroke-linecap="butt" d="m191.27559 360.4252l0 0c0 -9.245331 8.072983 -16.740173 18.031494 -16.740173l0 0c9.958527 0 18.031494 7.4948425 18.031494 16.740173l0 0c0 9.245331 -8.072968 16.740143 -18.031494 16.740143l0 0c-9.958511 0 -18.031494 -7.494812 -18.031494 -16.740143z" fill-rule="evenodd"/><path fill="#eeeeee" d="m111.43307 360.4252l0 0c0 -9.245331 8.072983 -16.740173 18.031502 -16.740173l0 0c9.958511 0 18.031494 7.4948425 18.031494 16.740173l0 0c0 9.245331 -8.072983 16.740143 -18.031494 16.740143l0 0c-9.958519 0 -18.031502 -7.494812 -18.031502 -16.740143z" fill-rule="evenodd"/><path stroke="#595959" stroke-width="1.0" stroke-linejoin="round" stroke-linecap="butt" d="m111.43307 360.4252l0 0c0 -9.245331 8.072983 -16.740173 18.031502 -16.740173l0 0c9.958511 0 18.031494 7.4948425 18.031494 16.740173l0 0c0 9.245331 -8.072983 16.740143 -18.031494 16.740143l0 0c-9.958519 0 -18.031502 -7.494812 -18.031502 -16.740143z" fill-rule="evenodd"/><path fill="#000000" fill-opacity="0.0" d="m202.65138 243.44337l-32.06299 30.740158" fill-rule="evenodd"/><path stroke="#595959" stroke-width="1.0" stroke-linejoin="round" stroke-linecap="butt" d="m202.65138 243.44337l-32.06299 30.740158" fill-rule="evenodd"/><path fill="#000000" fill-opacity="0.0" d="m228.15176 243.44337l23.874023 30.740158" fill-rule="evenodd"/><path stroke="#595959" stroke-width="1.0" stroke-linejoin="round" stroke-linecap="butt" d="m228.15176 243.44337l23.874023 30.740158" fill-rule="evenodd"/><path fill="#000000" fill-opacity="0.0" d="m157.82986 302.75308l-28.37796 40.944885" fill-rule="evenodd"/><path stroke="#595959" stroke-width="1.0" stroke-linejoin="round" stroke-linecap="butt" d="m157.82986 302.75308l-28.37796 40.944885" fill-rule="evenodd"/><path fill="#000000" fill-opacity="0.0" d="m183.33025 302.75308l25.984253 40.944885" fill-rule="evenodd"/><path stroke="#595959" stroke-width="1.0" stroke-linejoin="round" stroke-linecap="butt" d="m183.33025 302.75308l25.984253 40.944885" fill-rule="evenodd"/><path fill="#000000" fill-opacity="0.0" d="m264.76855 302.75308l23.307098 40.944885" fill-rule="evenodd"/><path stroke="#595959" stroke-width="1.0" stroke-linejoin="round" stroke-linecap="butt" d="m264.76855 302.75308l23.307098 40.944885" fill-rule="evenodd"/><path fill="#000000" fill-opacity="0.0" d="m196.83194 227.74803c-14.135452 8.243668 -35.08162 5.205765 -45.858276 17.519684c-7.6322784 8.721024 -4.074005 26.32756 4.120743 34.522324" fill-rule="evenodd"/><path stroke="#595959" stroke-width="1.0" stroke-linejoin="round" stroke-linecap="butt" d="m196.83194 227.74803c-14.135437 8.243683 -35.08162 5.2057495 -45.85826 17.519684c-3.8161469 4.3605194 -4.834656 10.942398 -3.874771 17.458511c0.4799347 3.2580566 1.4544678 6.4996643 2.8211823 9.438934c0.3416748 0.73480225 0.7078705 1.4507141 1.0969849 2.14328c0.09727478 0.17315674 0.19596863 0.34481812 0.2960968 0.5149536l0.1257019 0.20880127" fill-rule="evenodd"/><path fill="#595959" stroke="#595959" stroke-width="1.0" stroke-linecap="butt" d="m150.12909 276.0385l4.074646 2.5922546l-1.4550781 -4.6049194z" fill-rule="evenodd"/><path fill="#000000" fill-opacity="0.0" d="m152.0028 287.00262c-17.308762 8.665405 -42.646423 8.840271 -52.042 25.763794c-6.4518127 11.621155 5.113495 30.129913 17.005257 36.068237" fill-rule="evenodd"/><path stroke="#595959" stroke-width="1.0" stroke-linejoin="round" stroke-linecap="butt" d="m152.0028 287.00262c-17.308762 8.665405 -42.646423 8.840271 -52.041992 25.763794c-3.2259064 5.810547 -1.9475403 13.343048 1.6237793 20.165161c1.7856598 3.4110718 4.144554 6.644562 6.8002777 9.396393c0.6639328 0.6879883 1.346405 1.3458557 2.0431213 1.9688721c0.34835815 0.3114624 0.700264 0.61428833 1.0551987 0.90774536l0.44953156 0.3642578" fill-rule="evenodd"/><path fill="#595959" stroke="#595959" stroke-width="1.0" stroke-linecap="butt" d="m111.03368 346.95447l4.7060013 1.0844727l-2.9079285 -3.855713z" fill-rule="evenodd"/><path fill="#eeeeee" d="m541.5958 231.6063l0 0c0 -9.245331 8.072937 -16.740158 18.031494 -16.740158l0 0c9.958496 0 18.031494 7.4948273 18.031494 16.740158l0 0c0 9.245346 -8.072998 16.740158 -18.031494 16.740158l0 0c-9.958557 0 -18.031494 -7.494812 -18.031494 -16.740158z" fill-rule="evenodd"/><path stroke="#595959" stroke-width="1.0" stroke-linejoin="round" stroke-linecap="butt" d="m541.5958 231.6063l0 0c0 -9.245331 8.072937 -16.740158 18.031494 -16.740158l0 0c9.958496 0 18.031494 7.4948273 18.031494 16.740158l0 0c0 9.245346 -8.072998 16.740158 -18.031494 16.740158l0 0c-9.958557 0 -18.031494 -7.494812 -18.031494 -16.740158z" fill-rule="evenodd"/><path fill="#eeeeee" d="m496.7743 290.91602l0 0c0 -9.245331 8.072968 -16.740173 18.031494 -16.740173l0 0c9.958496 0 18.031494 7.4948425 18.031494 16.740173l0 0c0 9.245331 -8.072998 16.740143 -18.031494 16.740143l0 0c-9.958527 0 -18.031494 -7.494812 -18.031494 -16.740143z" fill-rule="evenodd"/><path stroke="#595959" stroke-width="1.0" stroke-linejoin="round" stroke-linecap="butt" d="m496.7743 290.91602l0 0c0 -9.245331 8.072968 -16.740173 18.031494 -16.740173l0 0c9.958496 0 18.031494 7.4948425 18.031494 16.740173l0 0c0 9.245331 -8.072998 16.740143 -18.031494 16.740143l0 0c-9.958527 0 -18.031494 -7.494812 -18.031494 -16.740143z" fill-rule="evenodd"/><path fill="#eeeeee" d="m578.2126 290.91602l0 0c0 -9.245331 8.072998 -16.740173 18.031494 -16.740173l0 0c9.958557 0 18.031494 7.4948425 18.031494 16.740173l0 0c0 9.245331 -8.072937 16.740143 -18.031494 16.740143l0 0c-9.958496 0 -18.031494 -7.494812 -18.031494 -16.740143z" fill-rule="evenodd"/><path stroke="#595959" stroke-width="1.0" stroke-linejoin="round" stroke-linecap="butt" d="m578.2126 290.91602l0 0c0 -9.245331 8.072998 -16.740173 18.031494 -16.740173l0 0c9.958557 0 18.031494 7.4948425 18.031494 16.740173l0 0c0 9.245331 -8.072937 16.740143 -18.031494 16.740143l0 0c-9.958496 0 -18.031494 -7.494812 -18.031494 -16.740143z" fill-rule="evenodd"/><path fill="#eeeeee" d="m614.2756 360.4252l0 0c0 -9.245331 8.072998 -16.740173 18.031494 -16.740173l0 0c9.958557 0 18.031494 7.4948425 18.031494 16.740173l0 0c0 9.245331 -8.072937 16.740143 -18.031494 16.740143l0 0c-9.958496 0 -18.031494 -7.494812 -18.031494 -16.740143z" fill-rule="evenodd"/><path stroke="#595959" stroke-width="1.0" stroke-linejoin="round" stroke-linecap="butt" d="m614.2756 360.4252l0 0c0 -9.245331 8.072998 -16.740173 18.031494 -16.740173l0 0c9.958557 0 18.031494 7.4948425 18.031494 16.740173l0 0c0 9.245331 -8.072937 16.740143 -18.031494 16.740143l0 0c-9.958496 0 -18.031494 -7.494812 -18.031494 -16.740143z" fill-rule="evenodd"/><path fill="#eeeeee" d="m535.50134 360.4252l0 0c0 -9.245331 8.072937 -16.740173 18.031494 -16.740173l0 0c9.958496 0 18.031494 7.4948425 18.031494 16.740173l0 0c0 9.245331 -8.072998 16.740143 -18.031494 16.740143l0 0c-9.958557 0 -18.031494 -7.494812 -18.031494 -16.740143z" fill-rule="evenodd"/><path stroke="#595959" stroke-width="1.0" stroke-linejoin="round" stroke-linecap="butt" d="m535.50134 360.4252l0 0c0 -9.245331 8.072937 -16.740173 18.031494 -16.740173l0 0c9.958496 0 18.031494 7.4948425 18.031494 16.740173l0 0c0 9.245331 -8.072998 16.740143 -18.031494 16.740143l0 0c-9.958557 0 -18.031494 -7.494812 -18.031494 -16.740143z" fill-rule="evenodd"/><path fill="#eeeeee" d="m455.65878 360.4252l0 0c0 -9.245331 8.072998 -16.740173 18.031494 -16.740173l0 0c9.958527 0 18.031494 7.4948425 18.031494 16.740173l0 0c0 9.245331 -8.072968 16.740143 -18.031494 16.740143l0 0c-9.958496 0 -18.031494 -7.494812 -18.031494 -16.740143z" fill-rule="evenodd"/><path stroke="#595959" stroke-width="1.0" stroke-linejoin="round" stroke-linecap="butt" d="m455.65878 360.4252l0 0c0 -9.245331 8.072998 -16.740173 18.031494 -16.740173l0 0c9.958527 0 18.031494 7.4948425 18.031494 16.740173l0 0c0 9.245331 -8.072968 16.740143 -18.031494 16.740143l0 0c-9.958496 0 -18.031494 -7.494812 -18.031494 -16.740143z" fill-rule="evenodd"/><path fill="#000000" fill-opacity="0.0" d="m546.8771 243.44337l-32.06299 30.740158" fill-rule="evenodd"/><path stroke="#595959" stroke-width="1.0" stroke-linejoin="round" stroke-linecap="butt" d="m546.8771 243.44337l-32.06299 30.740158" fill-rule="evenodd"/><path fill="#000000" fill-opacity="0.0" d="m572.3775 243.44337l23.874023 30.740158" fill-rule="evenodd"/><path stroke="#595959" stroke-width="1.0" stroke-linejoin="round" stroke-linecap="butt" d="m572.3775 243.44337l23.874023 30.740158" fill-rule="evenodd"/><path fill="#000000" fill-opacity="0.0" d="m502.05557 302.75308l-28.37793 40.944885" fill-rule="evenodd"/><path stroke="#595959" stroke-width="1.0" stroke-linejoin="round" stroke-linecap="butt" d="m502.05557 302.75308l-28.37793 40.944885" fill-rule="evenodd"/><path fill="#000000" fill-opacity="0.0" d="m527.55597 302.75308l25.984253 40.944885" fill-rule="evenodd"/><path stroke="#595959" stroke-width="1.0" stroke-linejoin="round" stroke-linecap="butt" d="m527.55597 302.75308l25.984253 40.944885" fill-rule="evenodd"/><path fill="#000000" fill-opacity="0.0" d="m608.99426 302.75308l23.307129 40.944885" fill-rule="evenodd"/><path stroke="#595959" stroke-width="1.0" stroke-linejoin="round" stroke-linecap="butt" d="m608.99426 302.75308l23.307129 40.944885" fill-rule="evenodd"/><path fill="#000000" fill-opacity="0.0" d="m461.16592 350.89764c-13.734314 -20.584015 -30.801117 -51.26004 -17.519684 -72.1391c19.113373 -30.047256 62.289032 -42.76642 97.90027 -42.76642" fill-rule="evenodd"/><path stroke="#595959" stroke-width="1.0" stroke-linejoin="round" stroke-linecap="butt" d="m461.16592 350.89764c-13.7343445 -20.583984 -30.801086 -51.26004 -17.519684 -72.1391c9.556671 -15.023651 25.128937 -25.71524 42.76346 -32.65094c8.817261 -3.4678345 18.150055 -5.9967194 27.504242 -7.658615c4.677124 -0.83096313 9.359497 -1.4451752 13.985535 -1.851654c2.3130493 -0.20323181 4.6119385 -0.35453796 6.888977 -0.45503235l0.7592163 -0.031433105" fill-rule="evenodd"/><path fill="#595959" stroke="#595959" stroke-width="1.0" stroke-linecap="butt" d="m535.5804 237.76228l4.5045166 -1.7412262l-4.5698853 -1.5615845z" fill-rule="evenodd"/><path fill="#000000" fill-opacity="0.0" d="m152.0 156.31233l148.47244 0l0 48.472443l-148.47244 0z" fill-rule="evenodd"/><path fill="#595959" d="m165.85938 188.35234l-4.5625 -17.1875l2.328125 0l2.609375 11.265625q0.421875 1.765625 0.734375 3.515625q0.65625 -2.75 0.765625 -3.171875l3.28125 -11.609375l2.734375 0l2.46875 8.703125q0.921875 3.234375 1.328125 6.078125q0.328125 -1.625 0.859375 -3.734375l2.6875 -11.046875l2.296875 0l-4.71875 17.1875l-2.1875 0l-3.625 -13.09375q-0.453125 -1.640625 -0.53125 -2.015625q-0.28125 1.1875 -0.515625 2.015625l-3.640625 13.09375l-2.3125 0zm19.386719 -14.75l0 -2.4375l2.109375 0l0 2.4375l-2.109375 0zm0 14.75l0 -12.453125l2.109375 0l0 12.453125l-2.109375 0zm9.925781 -1.890625l0.3125 1.859375q-0.890625 0.203125 -1.59375 0.203125q-1.15625 0 -1.796875 -0.359375q-0.625 -0.375 -0.890625 -0.96875q-0.25 -0.59375 -0.25 -2.484375l0 -7.171875l-1.546875 0l0 -1.640625l1.546875 0l0 -3.078125l2.09375 -1.265625l0 4.34375l2.125 0l0 1.640625l-2.125 0l0 7.28125q0 0.90625 0.109375 1.171875q0.125 0.25 0.375 0.40625q0.25 0.140625 0.71875 0.140625q0.34375 0 0.921875 -0.078125zm2.0585938 1.890625l0 -17.1875l2.109375 0l0 6.171875q1.484375 -1.71875 3.734375 -1.71875q1.375 0 2.390625 0.546875q1.03125 0.546875 1.46875 1.515625q0.4375 0.953125 0.4375 2.78125l0 7.890625l-2.109375 0l0 -7.890625q0 -1.578125 -0.6875 -2.296875q-0.6875 -0.71875 -1.9375 -0.71875q-0.9375 0 -1.765625 0.484375q-0.828125 0.484375 -1.1875 1.3125q-0.34375 0.828125 -0.34375 2.296875l0 6.8125l-2.109375 0zm20.296875 0l0 -17.1875l6.46875 0q1.71875 0 2.625 0.171875q1.265625 0.203125 2.109375 0.796875q0.859375 0.59375 1.375 1.671875q0.53125 1.0625 0.53125 2.328125q0 2.203125 -1.40625 3.71875q-1.390625 1.515625 -5.03125 1.515625l-4.40625 0l0 6.984375l-2.265625 0zm2.265625 -9.015625l4.4375 0q2.203125 0 3.125 -0.8125q0.9375 -0.828125 0.9375 -2.3125q0 -1.078125 -0.546875 -1.84375q-0.546875 -0.765625 -1.4375 -1.015625q-0.578125 -0.15625 -2.125 -0.15625l-4.390625 0l0 6.140625zm13.4453125 9.015625l0 -12.453125l1.890625 0l0 1.890625q0.734375 -1.328125 1.34375 -1.75q0.625 -0.421875 1.359375 -0.421875q1.0625 0 2.171875 0.6875l-0.734375 1.953125q-0.765625 -0.453125 -1.546875 -0.453125q-0.6875 0 -1.25 0.421875q-0.546875 0.40625 -0.78125 1.140625q-0.34375 1.125 -0.34375 2.46875l0 6.515625l-2.109375 0zm7.2265625 -6.21875q0 -3.46875 1.921875 -5.125q1.609375 -1.390625 3.921875 -1.390625q2.5625 0 4.1875 1.6875q1.625 1.6875 1.625 4.640625q0 2.40625 -0.71875 3.78125q-0.71875 1.375 -2.09375 2.140625q-1.375 0.765625 -3.0 0.765625q-2.625 0 -4.234375 -1.671875q-1.609375 -1.6875 -1.609375 -4.828125zm2.171875 0q0 2.390625 1.03125 3.578125q1.046875 1.1875 2.640625 1.1875q1.5625 0 2.609375 -1.1875q1.046875 -1.203125 1.046875 -3.65625q0 -2.3125 -1.0625 -3.5q-1.046875 -1.1875 -2.59375 -1.1875q-1.59375 0 -2.640625 1.1875q-1.03125 1.1875 -1.03125 3.578125zm11.957031 10.984375l0 -17.21875l1.921875 0l0 1.625q0.6875 -0.953125 1.53125 -1.421875q0.859375 -0.484375 2.078125 -0.484375q1.59375 0 2.8125 0.828125q1.21875 0.8125 1.84375 2.3125q0.625 1.5 0.625 3.28125q0 1.90625 -0.6875 3.4375q-0.6875 1.53125 -2.0 2.34375q-1.296875 0.8125 -2.734375 0.8125q-1.0625 0 -1.90625 -0.4375q-0.828125 -0.453125 -1.375 -1.140625l0 6.0625l-2.109375 0zm1.921875 -10.921875q0 2.40625 0.96875 3.5625q0.96875 1.140625 2.359375 1.140625q1.40625 0 2.40625 -1.1875q1.0 -1.1875 1.0 -3.6875q0 -2.375 -0.984375 -3.5625q-0.96875 -1.1875 -2.328125 -1.1875q-1.359375 0 -2.390625 1.265625q-1.03125 1.25 -1.03125 3.65625zm10.582031 2.4375l2.09375 -0.328125q0.171875 1.25 0.96875 1.921875q0.8125 0.671875 2.25 0.671875q1.453125 0 2.15625 -0.59375q0.703125 -0.59375 0.703125 -1.390625q0 -0.71875 -0.625 -1.125q-0.421875 -0.28125 -2.15625 -0.71875q-2.3125 -0.578125 -3.21875 -1.0q-0.890625 -0.4375 -1.359375 -1.1875q-0.453125 -0.765625 -0.453125 -1.671875q0 -0.828125 0.375 -1.53125q0.390625 -0.71875 1.046875 -1.1875q0.484375 -0.359375 1.328125 -0.609375q0.859375 -0.265625 1.828125 -0.265625q1.46875 0 2.578125 0.421875q1.109375 0.421875 1.625 1.15625q0.53125 0.71875 0.734375 1.921875l-2.0625 0.28125q-0.140625 -0.96875 -0.8125 -1.5q-0.671875 -0.546875 -1.90625 -0.546875q-1.453125 0 -2.078125 0.484375q-0.625 0.484375 -0.625 1.125q0 0.40625 0.265625 0.734375q0.25 0.34375 0.8125 0.5625q0.3125 0.125 1.859375 0.546875q2.234375 0.59375 3.109375 0.984375q0.890625 0.375 1.390625 1.109375q0.515625 0.71875 0.515625 1.796875q0 1.046875 -0.625 1.984375q-0.609375 0.9375 -1.765625 1.453125q-1.15625 0.5 -2.625 0.5q-2.421875 0 -3.703125 -1.0q-1.265625 -1.015625 -1.625 -3.0z" fill-rule="nonzero"/><path fill="#000000" fill-opacity="0.0" d="m480.63516 156.31233l157.98428 0l0 48.472443l-157.98428 0z" fill-rule="evenodd"/><path fill="#595959" d="m494.49454 188.35234l-4.5625 -17.1875l2.328125 0l2.609375 11.265625q0.421875 1.765625 0.734375 3.515625q0.65625 -2.75 0.765625 -3.171875l3.28125 -11.609375l2.734375 0l2.46875 8.703125q0.921875 3.234375 1.328125 6.078125q0.328125 -1.625 0.859375 -3.734375l2.6875 -11.046875l2.2969055 0l-4.7187805 17.1875l-2.1875 0l-3.625 -13.09375q-0.453125 -1.640625 -0.53125 -2.015625q-0.28125 1.1875 -0.515625 2.015625l-3.640625 13.09375l-2.3125 0zm19.38675 -14.75l0 -2.4375l2.109375 0l0 2.4375l-2.109375 0zm0 14.75l0 -12.453125l2.109375 0l0 12.453125l-2.109375 0zm9.925781 -1.890625l0.3125 1.859375q-0.890625 0.203125 -1.59375 0.203125q-1.15625 0 -1.796875 -0.359375q-0.625 -0.375 -0.890625 -0.96875q-0.25 -0.59375 -0.25 -2.484375l0 -7.171875l-1.546875 0l0 -1.640625l1.546875 0l0 -3.078125l2.09375 -1.265625l0 4.34375l2.125 0l0 1.640625l-2.125 0l0 7.28125q0 0.90625 0.109375 1.171875q0.125 0.25 0.375 0.40625q0.25 0.140625 0.71875 0.140625q0.34375 0 0.921875 -0.078125zm2.0585938 1.890625l0 -17.1875l2.109375 0l0 6.171875q1.484375 -1.71875 3.734375 -1.71875q1.375 0 2.390625 0.546875q1.03125 0.546875 1.46875 1.515625q0.4375 0.953125 0.4375 2.78125l0 7.890625l-2.109375 0l0 -7.890625q0 -1.578125 -0.6875 -2.296875q-0.6875 -0.71875 -1.9375 -0.71875q-0.9375 0 -1.765625 0.484375q-0.828125 0.484375 -1.1875 1.3125q-0.34375 0.828125 -0.34375 2.296875l0 6.8125l-2.109375 0zm32.546875 -6.03125l2.28125 0.578125q-0.71875 2.796875 -2.578125 4.28125q-1.859375 1.46875 -4.546875 1.46875q-2.765625 0 -4.515625 -1.125q-1.734375 -1.140625 -2.640625 -3.28125q-0.90625 -2.15625 -0.90625 -4.609375q0 -2.6875 1.015625 -4.6875q1.03125 -2.0 2.921875 -3.03125q1.890625 -1.03125 4.171875 -1.03125q2.578125 0 4.328125 1.3125q1.765625 1.3125 2.453125 3.6875l-2.234375 0.53125q-0.609375 -1.875 -1.75 -2.734375q-1.125 -0.859375 -2.84375 -0.859375q-1.984375 0 -3.3125 0.953125q-1.328125 0.953125 -1.875 2.546875q-0.53125 1.59375 -0.53125 3.296875q0 2.1875 0.625 3.828125q0.640625 1.640625 1.984375 2.453125q1.359375 0.796875 2.921875 0.796875q1.921875 0 3.234375 -1.09375q1.328125 -1.109375 1.796875 -3.28125zm4.0195312 -0.1875q0 -3.46875 1.921875 -5.125q1.609375 -1.390625 3.921875 -1.390625q2.5625 0 4.1875 1.6875q1.625 1.6875 1.625 4.640625q0 2.40625 -0.71875 3.78125q-0.71875 1.375 -2.09375 2.140625q-1.375 0.765625 -3.0 0.765625q-2.625 0 -4.234375 -1.671875q-1.609375 -1.6875 -1.609375 -4.828125zm2.171875 0q0 2.390625 1.03125 3.578125q1.046875 1.1875 2.640625 1.1875q1.5625 0 2.609375 -1.1875q1.046875 -1.203125 1.046875 -3.65625q0 -2.3125 -1.0625 -3.5q-1.046875 -1.1875 -2.59375 -1.1875q-1.59375 0 -2.640625 1.1875q-1.03125 1.1875 -1.03125 3.578125zm11.957031 6.21875l0 -12.453125l1.90625 0l0 1.78125q1.375 -2.0625 3.953125 -2.0625q1.125 0 2.0625 0.40625q0.953125 0.40625 1.421875 1.0625q0.46875 0.65625 0.65625 1.5625q0.125 0.578125 0.125 2.046875l0 7.65625l-2.109375 0l0 -7.578125q0 -1.28125 -0.25 -1.921875q-0.25 -0.640625 -0.875 -1.015625q-0.625 -0.390625 -1.46875 -0.390625q-1.34375 0 -2.328125 0.859375q-0.984375 0.859375 -0.984375 3.25l0 6.796875l-2.109375 0zm17.957031 -1.890625l0.3125 1.859375q-0.890625 0.203125 -1.59375 0.203125q-1.15625 0 -1.796875 -0.359375q-0.625 -0.375 -0.890625 -0.96875q-0.25 -0.59375 -0.25 -2.484375l0 -7.171875l-1.546875 0l0 -1.640625l1.546875 0l0 -3.078125l2.09375 -1.265625l0 4.34375l2.125 0l0 1.640625l-2.125 0l0 7.28125q0 0.90625 0.109375 1.171875q0.125 0.25 0.375 0.40625q0.25 0.140625 0.71875 0.140625q0.34375 0 0.921875 -0.078125zm10.589844 -2.125l2.171875 0.28125q-0.515625 1.90625 -1.90625 2.96875q-1.390625 1.046875 -3.5625 1.046875q-2.734375 0 -4.34375 -1.671875q-1.59375 -1.6875 -1.59375 -4.734375q0 -3.140625 1.609375 -4.875q1.625 -1.734375 4.203125 -1.734375q2.5 0 4.078125 1.703125q1.59375 1.703125 1.59375 4.78125q0 0.1875 -0.015625 0.5625l-9.28125 0q0.109375 2.046875 1.15625 3.140625q1.046875 1.09375 2.609375 1.09375q1.15625 0 1.96875 -0.609375q0.828125 -0.609375 1.3125 -1.953125zm-6.9375 -3.40625l6.953125 0q-0.140625 -1.5625 -0.796875 -2.359375q-1.0 -1.21875 -2.609375 -1.21875q-1.453125 0 -2.453125 0.984375q-0.984375 0.96875 -1.09375 2.59375zm10.347656 7.421875l4.546875 -6.46875l-4.203125 -5.984375l2.640625 0l1.90625 2.921875q0.546875 0.828125 0.875 1.390625q0.515625 -0.765625 0.9375 -1.359375l2.109375 -2.953125l2.515625 0l-4.296875 5.859375l4.625 6.59375l-2.59375 0l-2.546875 -3.875l-0.6875 -1.03125l-3.265625 4.90625l-2.5625 0zm18.015625 -1.890625l0.3125 1.859375q-0.890625 0.203125 -1.59375 0.203125q-1.15625 0 -1.796875 -0.359375q-0.625 -0.375 -0.890625 -0.96875q-0.25 -0.59375 -0.25 -2.484375l0 -7.171875l-1.546875 0l0 -1.640625l1.546875 0l0 -3.078125l2.09375 -1.265625l0 4.34375l2.125 0l0 1.640625l-2.125 0l0 7.28125q0 0.90625 0.109375 1.171875q0.125 0.25 0.375 0.40625q0.25 0.140625 0.71875 0.140625q0.34375 0 0.921875 -0.078125z" fill-rule="nonzero"/><path fill="#000000" fill-opacity="0.0" d="m191.41158 210.59842l53.95276 0l0 42.015747l-53.95276 0z" fill-rule="evenodd"/><path fill="#595959" d="m200.83345 226.4178l0.828125 -0.078125q0.0625 0.5 0.28125 0.828125q0.21875 0.3125 0.671875 0.515625q0.453125 0.203125 1.015625 0.203125q0.515625 0 0.890625 -0.15625q0.390625 -0.15625 0.578125 -0.40625q0.1875 -0.265625 0.1875 -0.578125q0 -0.3125 -0.1875 -0.546875q-0.171875 -0.234375 -0.59375 -0.390625q-0.265625 -0.109375 -1.1875 -0.328125q-0.921875 -0.21875 -1.28125 -0.421875q-0.484375 -0.25 -0.71875 -0.609375q-0.234375 -0.375 -0.234375 -0.84375q0 -0.5 0.28125 -0.9375q0.296875 -0.4375 0.84375 -0.671875q0.546875 -0.234375 1.234375 -0.234375q0.734375 0 1.296875 0.25q0.578125 0.234375 0.875 0.703125q0.3125 0.453125 0.328125 1.046875l-0.84375 0.0625q-0.0625 -0.625 -0.46875 -0.953125q-0.390625 -0.328125 -1.15625 -0.328125q-0.796875 0 -1.171875 0.296875q-0.359375 0.296875 -0.359375 0.703125q0 0.359375 0.25 0.59375q0.265625 0.234375 1.328125 0.484375q1.078125 0.234375 1.484375 0.421875q0.578125 0.265625 0.859375 0.6875q0.28125 0.40625 0.28125 0.9375q0 0.53125 -0.3125 1.015625q-0.296875 0.46875 -0.875 0.734375q-0.5625 0.25 -1.28125 0.25q-0.90625 0 -1.515625 -0.265625q-0.609375 -0.265625 -0.96875 -0.78125q-0.34375 -0.53125 -0.359375 -1.203125zm6.4092865 2.140625l0 -6.671875l0.828125 0l0 2.390625q0.578125 -0.671875 1.453125 -0.671875q0.53125 0 0.921875 0.21875q0.40625 0.21875 0.578125 0.59375q0.171875 0.359375 0.171875 1.078125l0 3.0625l-0.828125 0l0 -3.0625q0 -0.625 -0.265625 -0.890625q-0.265625 -0.28125 -0.75 -0.28125q-0.375 0 -0.703125 0.1875q-0.3125 0.1875 -0.453125 0.515625q-0.125 0.3125 -0.125 0.890625l0 2.640625l-0.828125 0zm8.344116 -0.59375q-0.453125 0.390625 -0.875 0.546875q-0.421875 0.15625 -0.90625 0.15625q-0.796875 0 -1.21875 -0.390625q-0.421875 -0.390625 -0.421875 -1.0q0 -0.34375 0.15625 -0.640625q0.15625 -0.296875 0.421875 -0.46875q0.265625 -0.1875 0.59375 -0.28125q0.234375 -0.0625 0.71875 -0.109375q1.0 -0.125 1.46875 -0.28125q0 -0.171875 0 -0.21875q0 -0.5 -0.234375 -0.703125q-0.3125 -0.28125 -0.921875 -0.28125q-0.578125 0 -0.859375 0.203125q-0.28125 0.203125 -0.40625 0.71875l-0.796875 -0.109375q0.109375 -0.515625 0.359375 -0.828125q0.25 -0.328125 0.71875 -0.5q0.46875 -0.171875 1.09375 -0.171875q0.625 0 1.0 0.15625q0.390625 0.140625 0.578125 0.359375q0.1875 0.21875 0.25 0.5625q0.046875 0.203125 0.046875 0.75l0 1.09375q0 1.140625 0.046875 1.453125q0.0625 0.296875 0.21875 0.578125l-0.859375 0q-0.125 -0.25 -0.171875 -0.59375zm-0.0625 -1.828125q-0.453125 0.171875 -1.34375 0.296875q-0.5 0.078125 -0.71875 0.171875q-0.203125 0.09375 -0.3125 0.265625q-0.109375 0.171875 -0.109375 0.390625q0 0.328125 0.234375 0.546875q0.25 0.21875 0.734375 0.21875q0.46875 0 0.828125 -0.203125q0.375 -0.21875 0.5625 -0.578125q0.125 -0.265625 0.125 -0.8125l0 -0.296875zm2.0941162 2.421875l0 -4.84375l0.734375 0l0 0.734375q0.28125 -0.515625 0.515625 -0.671875q0.25 -0.171875 0.53125 -0.171875q0.421875 0 0.84375 0.265625l-0.28125 0.765625q-0.296875 -0.171875 -0.609375 -0.171875q-0.265625 0 -0.484375 0.15625q-0.203125 0.15625 -0.296875 0.453125q-0.140625 0.4375 -0.140625 0.953125l0 2.53125l-0.8125 0zm6.4188385 -1.5625l0.84375 0.109375q-0.1875 0.75 -0.734375 1.15625q-0.546875 0.40625 -1.390625 0.40625q-1.0625 0 -1.6875 -0.65625q-0.609375 -0.65625 -0.609375 -1.828125q0 -1.21875 0.625 -1.890625q0.625 -0.6875 1.625 -0.6875q0.984375 0 1.59375 0.671875q0.609375 0.65625 0.609375 1.859375q0 0.0625 0 0.21875l-3.609375 0q0.046875 0.796875 0.453125 1.21875q0.40625 0.421875 1.015625 0.421875q0.453125 0 0.765625 -0.234375q0.3125 -0.234375 0.5 -0.765625zm-2.6875 -1.328125l2.703125 0q-0.0625 -0.609375 -0.3125 -0.90625q-0.390625 -0.46875 -1.015625 -0.46875q-0.5625 0 -0.953125 0.375q-0.375 0.375 -0.421875 1.0zm7.703491 2.890625l0 -0.609375q-0.453125 0.71875 -1.34375 0.71875q-0.578125 0 -1.0625 -0.3125q-0.484375 -0.328125 -0.765625 -0.890625q-0.265625 -0.578125 -0.265625 -1.3125q0 -0.734375 0.234375 -1.3125q0.25 -0.59375 0.734375 -0.90625q0.484375 -0.328125 1.078125 -0.328125q0.4375 0 0.78125 0.1875q0.34375 0.1875 0.5625 0.484375l0 -2.390625l0.8125 0l0 6.671875l-0.765625 0zm-2.59375 -2.40625q0 0.921875 0.390625 1.390625q0.390625 0.453125 0.9375 0.453125q0.53125 0 0.90625 -0.4375q0.375 -0.4375 0.375 -1.34375q0 -1.0 -0.390625 -1.453125q-0.375 -0.46875 -0.9375 -0.46875q-0.546875 0 -0.921875 0.453125q-0.359375 0.4375 -0.359375 1.40625z" fill-rule="nonzero"/><path fill="#595959" d="m203.42511 237.6178l0.828125 -0.078125q0.0625 0.5 0.28125 0.828125q0.21875 0.3125 0.671875 0.515625q0.453125 0.203125 1.015625 0.203125q0.515625 0 0.890625 -0.15625q0.390625 -0.15625 0.578125 -0.40625q0.1875 -0.265625 0.1875 -0.578125q0 -0.3125 -0.1875 -0.546875q-0.171875 -0.234375 -0.59375 -0.390625q-0.265625 -0.109375 -1.1875 -0.328125q-0.921875 -0.21875 -1.28125 -0.421875q-0.484375 -0.25 -0.71875 -0.609375q-0.234375 -0.375 -0.234375 -0.84375q0 -0.5 0.28125 -0.9375q0.296875 -0.4375 0.84375 -0.671875q0.546875 -0.234375 1.234375 -0.234375q0.734375 0 1.296875 0.25q0.578125 0.234375 0.875 0.703125q0.3125 0.453125 0.328125 1.046875l-0.84375 0.0625q-0.0625 -0.625 -0.46875 -0.953125q-0.390625 -0.328125 -1.15625 -0.328125q-0.796875 0 -1.171875 0.296875q-0.359375 0.296875 -0.359375 0.703125q0 0.359375 0.25 0.59375q0.265625 0.234375 1.328125 0.484375q1.078125 0.234375 1.484375 0.421875q0.578125 0.265625 0.859375 0.6875q0.28125 0.40625 0.28125 0.9375q0 0.53125 -0.3125 1.015625q-0.296875 0.46875 -0.875 0.734375q-0.5625 0.25 -1.28125 0.25q-0.90625 0 -1.515625 -0.265625q-0.609375 -0.265625 -0.96875 -0.78125q-0.34375 -0.53125 -0.359375 -1.203125zm8.2061615 1.40625l0.109375 0.71875q-0.34375 0.078125 -0.609375 0.078125q-0.453125 0 -0.703125 -0.140625q-0.234375 -0.140625 -0.34375 -0.359375q-0.09375 -0.234375 -0.09375 -0.984375l0 -2.78125l-0.609375 0l0 -0.640625l0.609375 0l0 -1.1875l0.8125 -0.5l0 1.6875l0.828125 0l0 0.640625l-0.828125 0l0 2.828125q0 0.359375 0.046875 0.46875q0.046875 0.09375 0.140625 0.15625q0.09375 0.046875 0.28125 0.046875q0.140625 0 0.359375 -0.03125zm3.9510345 0.140625q-0.453125 0.390625 -0.875 0.546875q-0.421875 0.15625 -0.90625 0.15625q-0.796875 0 -1.21875 -0.390625q-0.421875 -0.390625 -0.421875 -1.0q0 -0.34375 0.15625 -0.640625q0.15625 -0.296875 0.421875 -0.46875q0.265625 -0.1875 0.59375 -0.28125q0.234375 -0.0625 0.71875 -0.109375q1.0 -0.125 1.46875 -0.28125q0 -0.171875 0 -0.21875q0 -0.5 -0.234375 -0.703125q-0.3125 -0.28125 -0.921875 -0.28125q-0.578125 0 -0.859375 0.203125q-0.28125 0.203125 -0.40625 0.71875l-0.796875 -0.109375q0.109375 -0.515625 0.359375 -0.828125q0.25 -0.328125 0.71875 -0.5q0.46875 -0.171875 1.09375 -0.171875q0.625 0 1.0 0.15625q0.390625 0.140625 0.578125 0.359375q0.1875 0.21875 0.25 0.5625q0.046875 0.203125 0.046875 0.75l0 1.09375q0 1.140625 0.046875 1.453125q0.0625 0.296875 0.21875 0.578125l-0.859375 0q-0.125 -0.25 -0.171875 -0.59375zm-0.0625 -1.828125q-0.453125 0.171875 -1.34375 0.296875q-0.5 0.078125 -0.71875 0.171875q-0.203125 0.09375 -0.3125 0.265625q-0.109375 0.171875 -0.109375 0.390625q0 0.328125 0.234375 0.546875q0.25 0.21875 0.734375 0.21875q0.46875 0 0.828125 -0.203125q0.375 -0.21875 0.5625 -0.578125q0.125 -0.265625 0.125 -0.8125l0 -0.296875zm3.8909912 1.6875l0.109375 0.71875q-0.34375 0.078125 -0.609375 0.078125q-0.453125 0 -0.703125 -0.140625q-0.234375 -0.140625 -0.34375 -0.359375q-0.09375 -0.234375 -0.09375 -0.984375l0 -2.78125l-0.609375 0l0 -0.640625l0.609375 0l0 -1.1875l0.8125 -0.5l0 1.6875l0.828125 0l0 0.640625l-0.828125 0l0 2.828125q0 0.359375 0.046875 0.46875q0.046875 0.09375 0.140625 0.15625q0.09375 0.046875 0.28125 0.046875q0.140625 0 0.359375 -0.03125zm4.1072845 -0.828125l0.84375 0.109375q-0.1875 0.75 -0.734375 1.15625q-0.546875 0.40625 -1.390625 0.40625q-1.0625 0 -1.6875 -0.65625q-0.609375 -0.65625 -0.609375 -1.828125q0 -1.21875 0.625 -1.890625q0.625 -0.6875 1.625 -0.6875q0.984375 0 1.59375 0.671875q0.609375 0.65625 0.609375 1.859375q0 0.0625 0 0.21875l-3.609375 0q0.046875 0.796875 0.453125 1.21875q0.40625 0.421875 1.015625 0.421875q0.453125 0 0.765625 -0.234375q0.3125 -0.234375 0.5 -0.765625zm-2.6875 -1.328125l2.703125 0q-0.0625 -0.609375 -0.3125 -0.90625q-0.390625 -0.46875 -1.015625 -0.46875q-0.5625 0 -0.953125 0.375q-0.375 0.375 -0.421875 1.0z" fill-rule="nonzero"/><path fill="#000000" fill-opacity="0.0" d="m535.22675 210.59842l53.95276 0l0 42.015747l-53.95276 0z" fill-rule="evenodd"/><path fill="#595959" d="m544.6486 226.4178l0.828125 -0.078125q0.0625 0.5 0.28125 0.828125q0.21875 0.3125 0.671875 0.515625q0.453125 0.203125 1.015625 0.203125q0.515625 0 0.890625 -0.15625q0.390625 -0.15625 0.578125 -0.40625q0.1875 -0.265625 0.1875 -0.578125q0 -0.3125 -0.1875 -0.546875q-0.171875 -0.234375 -0.59375 -0.390625q-0.265625 -0.109375 -1.1875 -0.328125q-0.921875 -0.21875 -1.28125 -0.421875q-0.484375 -0.25 -0.71875 -0.609375q-0.234375 -0.375 -0.234375 -0.84375q0 -0.5 0.28125 -0.9375q0.296875 -0.4375 0.84375 -0.671875q0.546875 -0.234375 1.234375 -0.234375q0.734375 0 1.296875 0.25q0.578125 0.234375 0.875 0.703125q0.3125 0.453125 0.328125 1.046875l-0.84375 0.0625q-0.0625 -0.625 -0.46875 -0.953125q-0.390625 -0.328125 -1.15625 -0.328125q-0.796875 0 -1.171875 0.296875q-0.359375 0.296875 -0.359375 0.703125q0 0.359375 0.25 0.59375q0.265625 0.234375 1.328125 0.484375q1.078125 0.234375 1.484375 0.421875q0.578125 0.265625 0.859375 0.6875q0.28125 0.40625 0.28125 0.9375q0 0.53125 -0.3125 1.015625q-0.296875 0.46875 -0.875 0.734375q-0.5625 0.25 -1.28125 0.25q-0.90625 0 -1.515625 -0.265625q-0.609375 -0.265625 -0.96875 -0.78125q-0.34375 -0.53125 -0.359375 -1.203125zm6.4093018 2.140625l0 -6.671875l0.828125 0l0 2.390625q0.578125 -0.671875 1.453125 -0.671875q0.53125 0 0.921875 0.21875q0.40625 0.21875 0.578125 0.59375q0.171875 0.359375 0.171875 1.078125l0 3.0625l-0.828125 0l0 -3.0625q0 -0.625 -0.265625 -0.890625q-0.265625 -0.28125 -0.75 -0.28125q-0.375 0 -0.703125 0.1875q-0.3125 0.1875 -0.453125 0.515625q-0.125 0.3125 -0.125 0.890625l0 2.640625l-0.828125 0zm8.344116 -0.59375q-0.453125 0.390625 -0.875 0.546875q-0.421875 0.15625 -0.90625 0.15625q-0.796875 0 -1.21875 -0.390625q-0.421875 -0.390625 -0.421875 -1.0q0 -0.34375 0.15625 -0.640625q0.15625 -0.296875 0.421875 -0.46875q0.265625 -0.1875 0.59375 -0.28125q0.234375 -0.0625 0.71875 -0.109375q1.0 -0.125 1.46875 -0.28125q0 -0.171875 0 -0.21875q0 -0.5 -0.234375 -0.703125q-0.3125 -0.28125 -0.921875 -0.28125q-0.578125 0 -0.859375 0.203125q-0.28125 0.203125 -0.40625 0.71875l-0.796875 -0.109375q0.109375 -0.515625 0.359375 -0.828125q0.25 -0.328125 0.71875 -0.5q0.46875 -0.171875 1.09375 -0.171875q0.625 0 1.0 0.15625q0.390625 0.140625 0.578125 0.359375q0.1875 0.21875 0.25 0.5625q0.046875 0.203125 0.046875 0.75l0 1.09375q0 1.140625 0.046875 1.453125q0.0625 0.296875 0.21875 0.578125l-0.859375 0q-0.125 -0.25 -0.171875 -0.59375zm-0.0625 -1.828125q-0.453125 0.171875 -1.34375 0.296875q-0.5 0.078125 -0.71875 0.171875q-0.203125 0.09375 -0.3125 0.265625q-0.109375 0.171875 -0.109375 0.390625q0 0.328125 0.234375 0.546875q0.25 0.21875 0.734375 0.21875q0.46875 0 0.828125 -0.203125q0.375 -0.21875 0.5625 -0.578125q0.125 -0.265625 0.125 -0.8125l0 -0.296875zm2.0941162 2.421875l0 -4.84375l0.734375 0l0 0.734375q0.28125 -0.515625 0.515625 -0.671875q0.25 -0.171875 0.53125 -0.171875q0.421875 0 0.84375 0.265625l-0.28125 0.765625q-0.296875 -0.171875 -0.609375 -0.171875q-0.265625 0 -0.484375 0.15625q-0.203125 0.15625 -0.296875 0.453125q-0.140625 0.4375 -0.140625 0.953125l0 2.53125l-0.8125 0zm6.4188232 -1.5625l0.84375 0.109375q-0.1875 0.75 -0.734375 1.15625q-0.546875 0.40625 -1.390625 0.40625q-1.0625 0 -1.6875 -0.65625q-0.609375 -0.65625 -0.609375 -1.828125q0 -1.21875 0.625 -1.890625q0.625 -0.6875 1.625 -0.6875q0.984375 0 1.59375 0.671875q0.609375 0.65625 0.609375 1.859375q0 0.0625 0 0.21875l-3.609375 0q0.046875 0.796875 0.453125 1.21875q0.40625 0.421875 1.015625 0.421875q0.453125 0 0.765625 -0.234375q0.3125 -0.234375 0.5 -0.765625zm-2.6875 -1.328125l2.703125 0q-0.0625 -0.609375 -0.3125 -0.90625q-0.390625 -0.46875 -1.015625 -0.46875q-0.5625 0 -0.953125 0.375q-0.375 0.375 -0.421875 1.0zm7.703491 2.890625l0 -0.609375q-0.453125 0.71875 -1.34375 0.71875q-0.578125 0 -1.0625 -0.3125q-0.484375 -0.328125 -0.765625 -0.890625q-0.265625 -0.578125 -0.265625 -1.3125q0 -0.734375 0.234375 -1.3125q0.25 -0.59375 0.734375 -0.90625q0.484375 -0.328125 1.078125 -0.328125q0.4375 0 0.78125 0.1875q0.34375 0.1875 0.5625 0.484375l0 -2.390625l0.8125 0l0 6.671875l-0.765625 0zm-2.59375 -2.40625q0 0.921875 0.390625 1.390625q0.390625 0.453125 0.9375 0.453125q0.53125 0 0.90625 -0.4375q0.375 -0.4375 0.375 -1.34375q0 -1.0 -0.390625 -1.453125q-0.375 -0.46875 -0.9375 -0.46875q-0.546875 0 -0.921875 0.453125q-0.359375 0.4375 -0.359375 1.40625z" fill-rule="nonzero"/><path fill="#595959" d="m547.2403 237.6178l0.828125 -0.078125q0.0625 0.5 0.28125 0.828125q0.21875 0.3125 0.671875 0.515625q0.453125 0.203125 1.015625 0.203125q0.515625 0 0.890625 -0.15625q0.390625 -0.15625 0.578125 -0.40625q0.1875 -0.265625 0.1875 -0.578125q0 -0.3125 -0.1875 -0.546875q-0.171875 -0.234375 -0.59375 -0.390625q-0.265625 -0.109375 -1.1875 -0.328125q-0.921875 -0.21875 -1.28125 -0.421875q-0.484375 -0.25 -0.71875 -0.609375q-0.234375 -0.375 -0.234375 -0.84375q0 -0.5 0.28125 -0.9375q0.296875 -0.4375 0.84375 -0.671875q0.546875 -0.234375 1.234375 -0.234375q0.734375 0 1.296875 0.25q0.578125 0.234375 0.875 0.703125q0.3125 0.453125 0.328125 1.046875l-0.84375 0.0625q-0.0625 -0.625 -0.46875 -0.953125q-0.390625 -0.328125 -1.15625 -0.328125q-0.796875 0 -1.171875 0.296875q-0.359375 0.296875 -0.359375 0.703125q0 0.359375 0.25 0.59375q0.265625 0.234375 1.328125 0.484375q1.078125 0.234375 1.484375 0.421875q0.578125 0.265625 0.859375 0.6875q0.28125 0.40625 0.28125 0.9375q0 0.53125 -0.3125 1.015625q-0.296875 0.46875 -0.875 0.734375q-0.5625 0.25 -1.28125 0.25q-0.90625 0 -1.515625 -0.265625q-0.609375 -0.265625 -0.96875 -0.78125q-0.34375 -0.53125 -0.359375 -1.203125zm8.206177 1.40625l0.109375 0.71875q-0.34375 0.078125 -0.609375 0.078125q-0.453125 0 -0.703125 -0.140625q-0.234375 -0.140625 -0.34375 -0.359375q-0.09375 -0.234375 -0.09375 -0.984375l0 -2.78125l-0.609375 0l0 -0.640625l0.609375 0l0 -1.1875l0.8125 -0.5l0 1.6875l0.828125 0l0 0.640625l-0.828125 0l0 2.828125q0 0.359375 0.046875 0.46875q0.046875 0.09375 0.140625 0.15625q0.09375 0.046875 0.28125 0.046875q0.140625 0 0.359375 -0.03125zm3.9509888 0.140625q-0.453125 0.390625 -0.875 0.546875q-0.421875 0.15625 -0.90625 0.15625q-0.796875 0 -1.21875 -0.390625q-0.421875 -0.390625 -0.421875 -1.0q0 -0.34375 0.15625 -0.640625q0.15625 -0.296875 0.421875 -0.46875q0.265625 -0.1875 0.59375 -0.28125q0.234375 -0.0625 0.71875 -0.109375q1.0 -0.125 1.46875 -0.28125q0 -0.171875 0 -0.21875q0 -0.5 -0.234375 -0.703125q-0.3125 -0.28125 -0.921875 -0.28125q-0.578125 0 -0.859375 0.203125q-0.28125 0.203125 -0.40625 0.71875l-0.796875 -0.109375q0.109375 -0.515625 0.359375 -0.828125q0.25 -0.328125 0.71875 -0.5q0.46875 -0.171875 1.09375 -0.171875q0.625 0 1.0 0.15625q0.390625 0.140625 0.578125 0.359375q0.1875 0.21875 0.25 0.5625q0.046875 0.203125 0.046875 0.75l0 1.09375q0 1.140625 0.046875 1.453125q0.0625 0.296875 0.21875 0.578125l-0.859375 0q-0.125 -0.25 -0.171875 -0.59375zm-0.0625 -1.828125q-0.453125 0.171875 -1.34375 0.296875q-0.5 0.078125 -0.71875 0.171875q-0.203125 0.09375 -0.3125 0.265625q-0.109375 0.171875 -0.109375 0.390625q0 0.328125 0.234375 0.546875q0.25 0.21875 0.734375 0.21875q0.46875 0 0.828125 -0.203125q0.375 -0.21875 0.5625 -0.578125q0.125 -0.265625 0.125 -0.8125l0 -0.296875zm3.8909912 1.6875l0.109375 0.71875q-0.34375 0.078125 -0.609375 0.078125q-0.453125 0 -0.703125 -0.140625q-0.234375 -0.140625 -0.34375 -0.359375q-0.09375 -0.234375 -0.09375 -0.984375l0 -2.78125l-0.609375 0l0 -0.640625l0.609375 0l0 -1.1875l0.8125 -0.5l0 1.6875l0.828125 0l0 0.640625l-0.828125 0l0 2.828125q0 0.359375 0.046875 0.46875q0.046875 0.09375 0.140625 0.15625q0.09375 0.046875 0.28125 0.046875q0.140625 0 0.359375 -0.03125zm4.1073 -0.828125l0.84375 0.109375q-0.1875 0.75 -0.734375 1.15625q-0.546875 0.40625 -1.390625 0.40625q-1.0625 0 -1.6875 -0.65625q-0.609375 -0.65625 -0.609375 -1.828125q0 -1.21875 0.625 -1.890625q0.625 -0.6875 1.625 -0.6875q0.984375 0 1.59375 0.671875q0.609375 0.65625 0.609375 1.859375q0 0.0625 0 0.21875l-3.609375 0q0.046875 0.796875 0.453125 1.21875q0.40625 0.421875 1.015625 0.421875q0.453125 0 0.765625 -0.234375q0.3125 -0.234375 0.5 -0.765625zm-2.6875 -1.328125l2.703125 0q-0.0625 -0.609375 -0.3125 -0.90625q-0.390625 -0.46875 -1.015625 -0.46875q-0.5625 0 -0.953125 0.375q-0.375 0.375 -0.421875 1.0z" fill-rule="nonzero"/><path fill="#000000" fill-opacity="0.0" d="m108.855644 238.4147l53.95275 0l0 30.708649l-53.95275 0z" fill-rule="evenodd"/><path fill="#595959" d="m118.574394 256.3747l0 -6.671875l2.515625 0q0.671875 0 1.015625 0.0625q0.5 0.078125 0.828125 0.3125q0.328125 0.21875 0.53125 0.640625q0.203125 0.40625 0.203125 0.90625q0 0.859375 -0.546875 1.453125q-0.53125 0.578125 -1.953125 0.578125l-1.703125 0l0 2.71875l-0.890625 0zm0.890625 -3.5l1.71875 0q0.859375 0 1.21875 -0.3125q0.359375 -0.328125 0.359375 -0.90625q0 -0.421875 -0.21875 -0.71875q-0.203125 -0.296875 -0.546875 -0.390625q-0.234375 -0.0625 -0.828125 -0.0625l-1.703125 0l0 2.390625zm5.2217865 3.5l0 -4.84375l0.734375 0l0 0.734375q0.28125 -0.515625 0.515625 -0.671875q0.25 -0.171875 0.53125 -0.171875q0.421875 0 0.84375 0.265625l-0.28125 0.765625q-0.296875 -0.171875 -0.609375 -0.171875q-0.265625 0 -0.484375 0.15625q-0.203125 0.15625 -0.296875 0.453125q-0.140625 0.4375 -0.140625 0.953125l0 2.53125l-0.8125 0zm2.8094635 -2.421875q0 -1.34375 0.7499924 -1.984375q0.625 -0.546875 1.515625 -0.546875q1.0 0 1.625 0.65625q0.640625 0.65625 0.640625 1.8125q0 0.9375 -0.28125 1.46875q-0.28125 0.53125 -0.8125 0.828125q-0.53125 0.296875 -1.171875 0.296875q-1.015625 0 -1.640625 -0.640625q-0.6249924 -0.65625 -0.6249924 -1.890625zm0.8437424 0q0 0.9375 0.40625 1.40625q0.40625 0.453125 1.015625 0.453125q0.609375 0 1.015625 -0.46875q0.40625 -0.46875 0.40625 -1.421875q0 -0.890625 -0.40625 -1.34375q-0.40625 -0.46875 -1.015625 -0.46875q-0.609375 0 -1.015625 0.46875q-0.40625 0.453125 -0.40625 1.375zm4.640991 4.28125l0 -6.703125l0.75 0l0 0.640625q0.265625 -0.375 0.59375 -0.5625q0.34375 -0.1875 0.8125 -0.1875q0.625 0 1.09375 0.328125q0.46875 0.3125 0.703125 0.90625q0.25 0.578125 0.25 1.265625q0 0.734375 -0.265625 1.328125q-0.265625 0.59375 -0.78125 0.921875q-0.5 0.3125 -1.0625 0.3125q-0.40625 0 -0.734375 -0.171875q-0.328125 -0.171875 -0.53125 -0.4375l0 2.359375l-0.828125 0zm0.75 -4.25q0 0.9375 0.375 1.390625q0.375 0.4375 0.921875 0.4375q0.546875 0 0.921875 -0.453125q0.390625 -0.46875 0.390625 -1.4375q0 -0.9375 -0.375 -1.390625q-0.375 -0.453125 -0.90625 -0.453125q-0.53125 0 -0.9375 0.484375q-0.390625 0.484375 -0.390625 1.421875zm4.109741 0.953125l0.8125 -0.140625q0.078125 0.5 0.390625 0.765625q0.3125 0.25 0.859375 0.25q0.578125 0 0.84375 -0.234375q0.28125 -0.234375 0.28125 -0.53125q0 -0.28125 -0.25 -0.4375q-0.171875 -0.109375 -0.84375 -0.28125q-0.890625 -0.234375 -1.25 -0.390625q-0.34375 -0.171875 -0.53125 -0.46875q-0.171875 -0.296875 -0.171875 -0.640625q0 -0.328125 0.140625 -0.59375q0.15625 -0.28125 0.40625 -0.46875q0.203125 -0.140625 0.53125 -0.234375q0.328125 -0.109375 0.703125 -0.109375q0.578125 0 1.0 0.171875q0.4375 0.15625 0.640625 0.4375q0.203125 0.28125 0.28125 0.75l-0.796875 0.109375q-0.0625 -0.375 -0.328125 -0.578125q-0.265625 -0.203125 -0.734375 -0.203125q-0.5625 0 -0.8125 0.1875q-0.234375 0.171875 -0.234375 0.4375q0 0.15625 0.09375 0.28125q0.109375 0.125 0.3125 0.21875q0.125 0.046875 0.734375 0.203125q0.859375 0.234375 1.203125 0.390625q0.34375 0.140625 0.53125 0.421875q0.203125 0.28125 0.203125 0.703125q0 0.40625 -0.234375 0.78125q-0.234375 0.359375 -0.6875 0.5625q-0.453125 0.1875 -1.015625 0.1875q-0.953125 0 -1.453125 -0.390625q-0.484375 -0.390625 -0.625 -1.15625z" fill-rule="nonzero"/><path fill="#000000" fill-opacity="0.0" d="m60.949482 302.5643l53.952755 0l0 30.70868l-53.952755 0z" fill-rule="evenodd"/><path fill="#595959" d="m70.66823 320.5243l0 -6.671875l2.515625 0q0.671875 0 1.015625 0.0625q0.5 0.078125 0.828125 0.3125q0.328125 0.21875 0.53125 0.640625q0.203125 0.40625 0.203125 0.90625q0 0.859375 -0.546875 1.453125q-0.53125 0.578125 -1.953125 0.578125l-1.703125 0l0 2.71875l-0.890625 0zm0.890625 -3.5l1.71875 0q0.859375 0 1.21875 -0.3125q0.359375 -0.328125 0.359375 -0.90625q0 -0.421875 -0.21875 -0.71875q-0.203125 -0.296875 -0.546875 -0.390625q-0.234375 -0.0625 -0.828125 -0.0625l-1.703125 0l0 2.390625zm5.2217865 3.5l0 -4.84375l0.734375 0l0 0.734375q0.28125 -0.515625 0.515625 -0.671875q0.25 -0.171875 0.53125 -0.171875q0.421875 0 0.84375 0.265625l-0.28125 0.765625q-0.296875 -0.171875 -0.609375 -0.171875q-0.265625 0 -0.484375 0.15625q-0.203125 0.15625 -0.296875 0.453125q-0.140625 0.4375 -0.140625 0.953125l0 2.53125l-0.8125 0zm2.8094635 -2.421875q0 -1.34375 0.75 -1.984375q0.625 -0.546875 1.515625 -0.546875q1.0 0 1.625 0.65625q0.640625 0.65625 0.640625 1.8125q0 0.9375 -0.28125 1.46875q-0.28125 0.53125 -0.8125 0.828125q-0.53125 0.296875 -1.171875 0.296875q-1.015625 0 -1.640625 -0.640625q-0.625 -0.65625 -0.625 -1.890625zm0.84375 0q0 0.9375 0.40625 1.40625q0.40625 0.453125 1.015625 0.453125q0.609375 0 1.015625 -0.46875q0.40625 -0.46875 0.40625 -1.421875q0 -0.890625 -0.40625 -1.34375q-0.40625 -0.46875 -1.015625 -0.46875q-0.609375 0 -1.015625 0.46875q-0.40625 0.453125 -0.40625 1.375zm4.640991 4.28125l0 -6.703125l0.75 0l0 0.640625q0.265625 -0.375 0.59375 -0.5625q0.34375 -0.1875 0.8125 -0.1875q0.625 0 1.09375 0.328125q0.46875 0.3125 0.703125 0.90625q0.25 0.578125 0.25 1.265625q0 0.734375 -0.265625 1.328125q-0.265625 0.59375 -0.78125 0.921875q-0.5 0.3125 -1.0625 0.3125q-0.40625 0 -0.734375 -0.171875q-0.328125 -0.171875 -0.53125 -0.4375l0 2.359375l-0.828125 0zm0.75 -4.25q0 0.9375 0.375 1.390625q0.375 0.4375 0.921875 0.4375q0.546875 0 0.921875 -0.453125q0.390625 -0.46875 0.390625 -1.4375q0 -0.9375 -0.375 -1.390625q-0.375 -0.453125 -0.90625 -0.453125q-0.53125 0 -0.9375 0.484375q-0.390625 0.484375 -0.390625 1.421875zm4.109741 0.953125l0.8125 -0.140625q0.078125 0.5 0.390625 0.765625q0.3125 0.25 0.859375 0.25q0.578125 0 0.84375 -0.234375q0.28125 -0.234375 0.28125 -0.53125q0 -0.28125 -0.25 -0.4375q-0.171875 -0.109375 -0.84375 -0.28125q-0.890625 -0.234375 -1.25 -0.390625q-0.34375 -0.171875 -0.53125 -0.46875q-0.171875 -0.296875 -0.171875 -0.640625q0 -0.328125 0.140625 -0.59375q0.15625 -0.28125 0.40625 -0.46875q0.203125 -0.140625 0.53125 -0.234375q0.328125 -0.109375 0.703125 -0.109375q0.578125 0 1.0 0.171875q0.4375 0.15625 0.640625 0.4375q0.203125 0.28125 0.28125 0.75l-0.796875 0.109375q-0.0625 -0.375 -0.328125 -0.578125q-0.265625 -0.203125 -0.734375 -0.203125q-0.5625 0 -0.8125 0.1875q-0.234375 0.171875 -0.234375 0.4375q0 0.15625 0.09375 0.28125q0.109375 0.125 0.3125 0.21875q0.125 0.046875 0.734375 0.203125q0.859375 0.234375 1.203125 0.390625q0.34375 0.140625 0.53125 0.421875q0.203125 0.28125 0.203125 0.703125q0 0.40625 -0.234375 0.78125q-0.234375 0.359375 -0.6875 0.5625q-0.453125 0.1875 -1.015625 0.1875q-0.953125 0 -1.453125 -0.390625q-0.484375 -0.390625 -0.625 -1.15625z" fill-rule="nonzero"/><path fill="#000000" fill-opacity="0.0" d="m573.4085 216.25197l121.165344 0l0 30.708664l-121.165344 0z" fill-rule="evenodd"/><path fill="#595959" d="m587.8929 231.86823l0.890625 0.21875q-0.28125 1.09375 -1.015625 1.671875q-0.71875 0.5625 -1.75 0.5625q-1.09375 0 -1.765625 -0.4375q-0.671875 -0.4375 -1.03125 -1.265625q-0.34375 -0.84375 -0.34375 -1.796875q0 -1.046875 0.390625 -1.8125q0.40625 -0.78125 1.140625 -1.1875q0.734375 -0.40625 1.609375 -0.40625q1.015625 0 1.6875 0.515625q0.6875 0.515625 0.953125 1.4375l-0.859375 0.203125q-0.234375 -0.734375 -0.6875 -1.0625q-0.4375 -0.328125 -1.109375 -0.328125q-0.765625 0 -1.28125 0.375q-0.515625 0.359375 -0.734375 0.984375q-0.203125 0.625 -0.203125 1.28125q0 0.84375 0.25 1.484375q0.25 0.640625 0.765625 0.953125q0.53125 0.3125 1.140625 0.3125q0.734375 0 1.25 -0.421875q0.515625 -0.4375 0.703125 -1.28125zm1.5645752 -0.078125q0 -1.34375 0.75 -1.984375q0.625 -0.546875 1.515625 -0.546875q1.0 0 1.625 0.65625q0.640625 0.65625 0.640625 1.8125q0 0.9375 -0.28125 1.46875q-0.28125 0.53125 -0.8125 0.828125q-0.53125 0.296875 -1.171875 0.296875q-1.015625 0 -1.640625 -0.640625q-0.625 -0.65625 -0.625 -1.890625zm0.84375 0q0 0.9375 0.40625 1.40625q0.40625 0.453125 1.015625 0.453125q0.609375 0 1.015625 -0.46875q0.40625 -0.46875 0.40625 -1.421875q0 -0.890625 -0.40625 -1.34375q-0.40625 -0.46875 -1.015625 -0.46875q-0.609375 0 -1.015625 0.46875q-0.40625 0.453125 -0.40625 1.375zm4.640991 2.421875l0 -4.84375l0.75 0l0 0.6875q0.53125 -0.796875 1.53125 -0.796875q0.4375 0 0.796875 0.171875q0.375 0.15625 0.546875 0.40625q0.1875 0.25 0.265625 0.609375q0.046875 0.21875 0.046875 0.796875l0 2.96875l-0.828125 0l0 -2.9375q0 -0.5 -0.09375 -0.75q-0.09375 -0.25 -0.34375 -0.390625q-0.234375 -0.15625 -0.5625 -0.15625q-0.515625 0 -0.90625 0.328125q-0.375 0.328125 -0.375 1.265625l0 2.640625l-0.828125 0zm6.984741 -0.734375l0.109375 0.71875q-0.34375 0.078125 -0.609375 0.078125q-0.453125 0 -0.703125 -0.140625q-0.234375 -0.140625 -0.34375 -0.359375q-0.09375 -0.234375 -0.09375 -0.984375l0 -2.78125l-0.609375 0l0 -0.640625l0.609375 0l0 -1.1875l0.8125 -0.5l0 1.6875l0.828125 0l0 0.640625l-0.828125 0l0 2.828125q0 0.359375 0.046875 0.46875q0.046875 0.09375 0.140625 0.15625q0.09375 0.046875 0.28125 0.046875q0.140625 0 0.359375 -0.03125zm4.1073 -0.828125l0.84375 0.109375q-0.1875 0.75 -0.734375 1.15625q-0.546875 0.40625 -1.390625 0.40625q-1.0625 0 -1.6875 -0.65625q-0.609375 -0.65625 -0.609375 -1.828125q0 -1.21875 0.625 -1.890625q0.625 -0.6875 1.625 -0.6875q0.984375 0 1.59375 0.671875q0.609375 0.65625 0.609375 1.859375q0 0.0625 0 0.21875l-3.609375 0q0.046875 0.796875 0.453125 1.21875q0.40625 0.421875 1.015625 0.421875q0.453125 0 0.765625 -0.234375q0.3125 -0.234375 0.5 -0.765625zm-2.6875 -1.328125l2.703125 0q-0.0625 -0.609375 -0.3125 -0.90625q-0.390625 -0.46875 -1.015625 -0.46875q-0.5625 0 -0.953125 0.375q-0.375 0.375 -0.421875 1.0zm4.015991 2.890625l1.765625 -2.515625l-1.625 -2.328125l1.015625 0l0.75 1.140625q0.203125 0.328125 0.34375 0.546875q0.1875 -0.3125 0.359375 -0.53125l0.8125 -1.15625l0.984375 0l-1.671875 2.28125l1.796875 2.5625l-1.0 0l-1.0 -1.5l-0.265625 -0.40625l-1.265625 1.90625l-1.0 0zm7.0078125 -0.734375l0.109375 0.71875q-0.34375 0.078125 -0.609375 0.078125q-0.453125 0 -0.703125 -0.140625q-0.234375 -0.140625 -0.34375 -0.359375q-0.09375 -0.234375 -0.09375 -0.984375l0 -2.78125l-0.609375 0l0 -0.640625l0.609375 0l0 -1.1875l0.8125 -0.5l0 1.6875l0.828125 0l0 0.640625l-0.828125 0l0 2.828125q0 0.359375 0.046875 0.46875q0.046875 0.09375 0.140625 0.15625q0.09375 0.046875 0.28125 0.046875q0.140625 0 0.359375 -0.03125zm8.261414 -1.609375l0.890625 0.21875q-0.28125 1.09375 -1.015625 1.671875q-0.71875 0.5625 -1.75 0.5625q-1.09375 0 -1.765625 -0.4375q-0.671875 -0.4375 -1.03125 -1.265625q-0.34375 -0.84375 -0.34375 -1.796875q0 -1.046875 0.390625 -1.8125q0.40625 -0.78125 1.140625 -1.1875q0.734375 -0.40625 1.609375 -0.40625q1.015625 0 1.6875 0.515625q0.6875 0.515625 0.953125 1.4375l-0.859375 0.203125q-0.234375 -0.734375 -0.6875 -1.0625q-0.4375 -0.328125 -1.109375 -0.328125q-0.765625 0 -1.28125 0.375q-0.515625 0.359375 -0.734375 0.984375q-0.203125 0.625 -0.203125 1.28125q0 0.84375 0.25 1.484375q0.25 0.640625 0.765625 0.953125q0.53125 0.3125 1.140625 0.3125q0.734375 0 1.25 -0.421875q0.515625 -0.4375 0.703125 -1.28125zm1.5646362 -0.078125q0 -1.34375 0.75 -1.984375q0.625 -0.546875 1.515625 -0.546875q1.0 0 1.625 0.65625q0.640625 0.65625 0.640625 1.8125q0 0.9375 -0.28125 1.46875q-0.28125 0.53125 -0.8125 0.828125q-0.53125 0.296875 -1.171875 0.296875q-1.015625 0 -1.640625 -0.640625q-0.625 -0.65625 -0.625 -1.890625zm0.84375 0q0 0.9375 0.40625 1.40625q0.40625 0.453125 1.015625 0.453125q0.609375 0 1.015625 -0.46875q0.40625 -0.46875 0.40625 -1.421875q0 -0.890625 -0.40625 -1.34375q-0.40625 -0.46875 -1.015625 -0.46875q-0.609375 0 -1.015625 0.46875q-0.40625 0.453125 -0.40625 1.375zm4.640991 2.421875l0 -4.84375l0.734375 0l0 0.6875q0.234375 -0.359375 0.609375 -0.578125q0.375 -0.21875 0.859375 -0.21875q0.546875 0 0.890625 0.234375q0.34375 0.21875 0.484375 0.625q0.5625 -0.859375 1.484375 -0.859375q0.71875 0 1.109375 0.40625q0.390625 0.390625 0.390625 1.21875l0 3.328125l-0.8125 0l0 -3.046875q0 -0.484375 -0.09375 -0.703125q-0.078125 -0.21875 -0.28125 -0.34375q-0.203125 -0.140625 -0.484375 -0.140625q-0.515625 0 -0.859375 0.34375q-0.328125 0.328125 -0.328125 1.078125l0 2.8125l-0.828125 0l0 -3.140625q0 -0.546875 -0.203125 -0.8125q-0.1875 -0.28125 -0.65625 -0.28125q-0.34375 0 -0.640625 0.1875q-0.28125 0.171875 -0.421875 0.53125q-0.125 0.34375 -0.125 1.0l0 2.515625l-0.828125 0zm7.7703857 1.859375l0 -6.703125l0.75 0l0 0.640625q0.265625 -0.375 0.59375 -0.5625q0.34375 -0.1875 0.8125 -0.1875q0.625 0 1.09375 0.328125q0.46875 0.3125 0.703125 0.90625q0.25 0.578125 0.25 1.265625q0 0.734375 -0.265625 1.328125q-0.265625 0.59375 -0.78125 0.921875q-0.5 0.3125 -1.0625 0.3125q-0.40625 0 -0.734375 -0.171875q-0.328125 -0.171875 -0.53125 -0.4375l0 2.359375l-0.828125 0zm0.75 -4.25q0 0.9375 0.375 1.390625q0.375 0.4375 0.921875 0.4375q0.546875 0 0.921875 -0.453125q0.390625 -0.46875 0.390625 -1.4375q0 -0.9375 -0.375 -1.390625q-0.375 -0.453125 -0.90625 -0.453125q-0.53125 0 -0.9375 0.484375q-0.390625 0.484375 -0.390625 1.421875zm4.140991 -0.03125q0 -1.34375 0.75 -1.984375q0.625 -0.546875 1.515625 -0.546875q1.0 0 1.625 0.65625q0.640625 0.65625 0.640625 1.8125q0 0.9375 -0.28125 1.46875q-0.28125 0.53125 -0.8125 0.828125q-0.53125 0.296875 -1.171875 0.296875q-1.015625 0 -1.640625 -0.640625q-0.625 -0.65625 -0.625 -1.890625zm0.84375 0q0 0.9375 0.40625 1.40625q0.40625 0.453125 1.015625 0.453125q0.609375 0 1.015625 -0.46875q0.40625 -0.46875 0.40625 -1.421875q0 -0.890625 -0.40625 -1.34375q-0.40625 -0.46875 -1.015625 -0.46875q-0.609375 0 -1.015625 0.46875q-0.40625 0.453125 -0.40625 1.375zm4.640991 2.421875l0 -4.84375l0.75 0l0 0.6875q0.53125 -0.796875 1.53125 -0.796875q0.4375 0 0.796875 0.171875q0.375 0.15625 0.546875 0.40625q0.1875 0.25 0.265625 0.609375q0.046875 0.21875 0.046875 0.796875l0 2.96875l-0.828125 0l0 -2.9375q0 -0.5 -0.09375 -0.75q-0.09375 -0.25 -0.34375 -0.390625q-0.234375 -0.15625 -0.5625 -0.15625q-0.515625 0 -0.90625 0.328125q-0.375 0.328125 -0.375 1.265625l0 2.640625l-0.828125 0zm8.500366 -1.5625l0.84375 0.109375q-0.1875 0.75 -0.734375 1.15625q-0.546875 0.40625 -1.390625 0.40625q-1.0625 0 -1.6875 -0.65625q-0.609375 -0.65625 -0.609375 -1.828125q0 -1.21875 0.625 -1.890625q0.625 -0.6875 1.625 -0.6875q0.984375 0 1.59375 0.671875q0.609375 0.65625 0.609375 1.859375q0 0.0625 0 0.21875l-3.609375 0q0.046875 0.796875 0.453125 1.21875q0.40625 0.421875 1.015625 0.421875q0.453125 0 0.765625 -0.234375q0.3125 -0.234375 0.5 -0.765625zm-2.6875 -1.328125l2.703125 0q-0.0625 -0.609375 -0.3125 -0.90625q-0.390625 -0.46875 -1.015625 -0.46875q-0.5625 0 -0.953125 0.375q-0.375 0.375 -0.421875 1.0zm4.562866 2.890625l0 -4.84375l0.75 0l0 0.6875q0.53125 -0.796875 1.53125 -0.796875q0.4375 0 0.796875 0.171875q0.375 0.15625 0.546875 0.40625q0.1875 0.25 0.265625 0.609375q0.046875 0.21875 0.046875 0.796875l0 2.96875l-0.828125 0l0 -2.9375q0 -0.5 -0.09375 -0.75q-0.09375 -0.25 -0.34375 -0.390625q-0.234375 -0.15625 -0.5625 -0.15625q-0.515625 0 -0.90625 0.328125q-0.375 0.328125 -0.375 1.265625l0 2.640625l-0.828125 0zm6.984741 -0.734375l0.109375 0.71875q-0.34375 0.078125 -0.609375 0.078125q-0.453125 0 -0.703125 -0.140625q-0.234375 -0.140625 -0.34375 -0.359375q-0.09375 -0.234375 -0.09375 -0.984375l0 -2.78125l-0.609375 0l0 -0.640625l0.609375 0l0 -1.1875l0.8125 -0.5l0 1.6875l0.828125 0l0 0.640625l-0.828125 0l0 2.828125q0 0.359375 0.046875 0.46875q0.046875 0.09375 0.140625 0.15625q0.09375 0.046875 0.28125 0.046875q0.140625 0 0.359375 -0.03125z" fill-rule="nonzero"/><path fill="#000000" fill-opacity="0.0" d="m229.04318 216.25197l121.165344 0l0 30.708664l-121.165344 0z" fill-rule="evenodd"/><path fill="#595959" d="m238.77756 234.21198l0 -6.671875l2.953125 0q0.90625 0 1.359375 0.1875q0.46875 0.171875 0.75 0.625q0.28125 0.453125 0.28125 1.0q0 0.71875 -0.46875 1.203125q-0.453125 0.484375 -1.421875 0.625q0.359375 0.15625 0.53125 0.328125q0.390625 0.359375 0.734375 0.890625l1.171875 1.8125l-1.125 0l-0.875 -1.390625q-0.390625 -0.59375 -0.640625 -0.90625q-0.25 -0.328125 -0.453125 -0.453125q-0.1875 -0.140625 -0.390625 -0.1875q-0.15625 -0.03125 -0.5 -0.03125l-1.03125 0l0 2.96875l-0.875 0zm0.875 -3.734375l1.90625 0q0.609375 0 0.953125 -0.125q0.34375 -0.125 0.515625 -0.390625q0.171875 -0.28125 0.171875 -0.609375q0 -0.46875 -0.34375 -0.765625q-0.34375 -0.3125 -1.078125 -0.3125l-2.125 0l0 2.203125zm9.048981 2.171875l0.84375 0.109375q-0.1875 0.75 -0.734375 1.15625q-0.546875 0.40625 -1.390625 0.40625q-1.0625 0 -1.6875 -0.65625q-0.609375 -0.65625 -0.609375 -1.828125q0 -1.21875 0.625 -1.890625q0.625 -0.6875 1.625 -0.6875q0.984375 0 1.59375 0.671875q0.609375 0.65625 0.609375 1.859375q0 0.0625 0 0.21875l-3.609375 0q0.046875 0.796875 0.453125 1.21875q0.40625 0.421875 1.015625 0.421875q0.453125 0 0.765625 -0.234375q0.3125 -0.234375 0.5 -0.765625zm-2.6875 -1.328125l2.703125 0q-0.0625 -0.609375 -0.3125 -0.90625q-0.390625 -0.46875 -1.015625 -0.46875q-0.5625 0 -0.953125 0.375q-0.375 0.375 -0.421875 1.0zm4.422241 3.296875l0.796875 0.109375q0.046875 0.375 0.28125 0.546875q0.296875 0.21875 0.828125 0.21875q0.5625 0 0.875 -0.234375q0.3125 -0.21875 0.421875 -0.625q0.0625 -0.25 0.0625 -1.0625q-0.546875 0.640625 -1.34375 0.640625q-1.0 0 -1.546875 -0.71875q-0.546875 -0.71875 -0.546875 -1.734375q0 -0.6875 0.25 -1.265625q0.25 -0.59375 0.71875 -0.90625q0.484375 -0.328125 1.125 -0.328125q0.859375 0 1.421875 0.703125l0 -0.59375l0.75 0l0 4.1875q0 1.125 -0.234375 1.59375q-0.21875 0.484375 -0.71875 0.75q-0.5 0.28125 -1.234375 0.28125q-0.859375 0 -1.390625 -0.390625q-0.53125 -0.390625 -0.515625 -1.171875zm0.671875 -2.90625q0 0.953125 0.375 1.390625q0.390625 0.4375 0.953125 0.4375q0.5625 0 0.9375 -0.4375q0.390625 -0.4375 0.390625 -1.375q0 -0.875 -0.390625 -1.328125q-0.390625 -0.453125 -0.953125 -0.453125q-0.546875 0 -0.9375 0.453125q-0.375 0.4375 -0.375 1.3125zm7.828491 2.5l0 -0.703125q-0.5625 0.8125 -1.53125 0.8125q-0.421875 0 -0.796875 -0.15625q-0.375 -0.171875 -0.5625 -0.421875q-0.171875 -0.25 -0.25 -0.609375q-0.046875 -0.234375 -0.046875 -0.765625l0 -3.0l0.828125 0l0 2.6875q0 0.640625 0.046875 0.875q0.078125 0.3125 0.328125 0.5q0.25 0.1875 0.609375 0.1875q0.375 0 0.703125 -0.1875q0.328125 -0.1875 0.453125 -0.515625q0.140625 -0.328125 0.140625 -0.953125l0 -2.59375l0.8125 0l0 4.84375l-0.734375 0zm2.0003662 0l0 -6.671875l0.828125 0l0 6.671875l-0.828125 0zm5.244293 -0.59375q-0.453125 0.390625 -0.875 0.546875q-0.421875 0.15625 -0.90625 0.15625q-0.796875 0 -1.21875 -0.390625q-0.421875 -0.390625 -0.421875 -1.0q0 -0.34375 0.15625 -0.640625q0.15625 -0.296875 0.421875 -0.46875q0.265625 -0.1875 0.59375 -0.28125q0.234375 -0.0625 0.71875 -0.109375q1.0 -0.125 1.46875 -0.28125q0 -0.171875 0 -0.21875q0 -0.5 -0.234375 -0.703125q-0.3125 -0.28125 -0.921875 -0.28125q-0.578125 0 -0.859375 0.203125q-0.28125 0.203125 -0.40625 0.71875l-0.796875 -0.109375q0.109375 -0.515625 0.359375 -0.828125q0.25 -0.328125 0.71875 -0.5q0.46875 -0.171875 1.09375 -0.171875q0.625 0 1.0 0.15625q0.390625 0.140625 0.578125 0.359375q0.1875 0.21875 0.25 0.5625q0.046875 0.203125 0.046875 0.75l0 1.09375q0 1.140625 0.046875 1.453125q0.0625 0.296875 0.21875 0.578125l-0.859375 0q-0.125 -0.25 -0.171875 -0.59375zm-0.0625 -1.828125q-0.453125 0.171875 -1.34375 0.296875q-0.5 0.078125 -0.71875 0.171875q-0.203125 0.09375 -0.3125 0.265625q-0.109375 0.171875 -0.109375 0.390625q0 0.328125 0.234375 0.546875q0.25 0.21875 0.734375 0.21875q0.46875 0 0.828125 -0.203125q0.375 -0.21875 0.5625 -0.578125q0.125 -0.265625 0.125 -0.8125l0 -0.296875zm2.0941162 2.421875l0 -4.84375l0.734375 0l0 0.734375q0.28125 -0.515625 0.515625 -0.671875q0.25 -0.171875 0.53125 -0.171875q0.421875 0 0.84375 0.265625l-0.28125 0.765625q-0.296875 -0.171875 -0.609375 -0.171875q-0.265625 0 -0.484375 0.15625q-0.203125 0.15625 -0.296875 0.453125q-0.140625 0.4375 -0.140625 0.953125l0 2.53125l-0.8125 0zm10.572998 -2.34375l0.890625 0.21875q-0.28125 1.09375 -1.015625 1.671875q-0.71875 0.5625 -1.75 0.5625q-1.09375 0 -1.765625 -0.4375q-0.671875 -0.4375 -1.03125 -1.265625q-0.34375 -0.84375 -0.34375 -1.796875q0 -1.046875 0.390625 -1.8125q0.40625 -0.78125 1.140625 -1.1875q0.734375 -0.40625 1.609375 -0.40625q1.015625 0 1.6875 0.515625q0.6875 0.515625 0.953125 1.4375l-0.859375 0.203125q-0.234375 -0.734375 -0.6875 -1.0625q-0.4375 -0.328125 -1.109375 -0.328125q-0.765625 0 -1.28125 0.375q-0.515625 0.359375 -0.734375 0.984375q-0.203125 0.625 -0.203125 1.28125q0 0.84375 0.25 1.484375q0.25 0.640625 0.765625 0.953125q0.53125 0.3125 1.140625 0.3125q0.734375 0 1.25 -0.421875q0.515625 -0.4375 0.703125 -1.28125zm1.5646057 -0.078125q0 -1.34375 0.75 -1.984375q0.625 -0.546875 1.515625 -0.546875q1.0 0 1.625 0.65625q0.640625 0.65625 0.640625 1.8125q0 0.9375 -0.28125 1.46875q-0.28125 0.53125 -0.8125 0.828125q-0.53125 0.296875 -1.171875 0.296875q-1.015625 0 -1.640625 -0.640625q-0.625 -0.65625 -0.625 -1.890625zm0.84375 0q0 0.9375 0.40625 1.40625q0.40625 0.453125 1.015625 0.453125q0.609375 0 1.015625 -0.46875q0.40625 -0.46875 0.40625 -1.421875q0 -0.890625 -0.40625 -1.34375q-0.40625 -0.46875 -1.015625 -0.46875q-0.609375 0 -1.015625 0.46875q-0.40625 0.453125 -0.40625 1.375zm4.640991 2.421875l0 -4.84375l0.734375 0l0 0.6875q0.234375 -0.359375 0.609375 -0.578125q0.375 -0.21875 0.859375 -0.21875q0.546875 0 0.890625 0.234375q0.34375 0.21875 0.484375 0.625q0.5625 -0.859375 1.484375 -0.859375q0.71875 0 1.109375 0.40625q0.390625 0.390625 0.390625 1.21875l0 3.328125l-0.8125 0l0 -3.046875q0 -0.484375 -0.09375 -0.703125q-0.078125 -0.21875 -0.28125 -0.34375q-0.203125 -0.140625 -0.484375 -0.140625q-0.515625 0 -0.859375 0.34375q-0.328125 0.328125 -0.328125 1.078125l0 2.8125l-0.828125 0l0 -3.140625q0 -0.546875 -0.203125 -0.8125q-0.1875 -0.28125 -0.65625 -0.28125q-0.34375 0 -0.640625 0.1875q-0.28125 0.171875 -0.421875 0.53125q-0.125 0.34375 -0.125 1.0l0 2.515625l-0.828125 0zm7.7703857 1.859375l0 -6.703125l0.75 0l0 0.640625q0.265625 -0.375 0.59375 -0.5625q0.34375 -0.1875 0.8125 -0.1875q0.625 0 1.09375 0.328125q0.46875 0.3125 0.703125 0.90625q0.25 0.578125 0.25 1.265625q0 0.734375 -0.265625 1.328125q-0.265625 0.59375 -0.78125 0.921875q-0.5 0.3125 -1.0625 0.3125q-0.40625 0 -0.734375 -0.171875q-0.328125 -0.171875 -0.53125 -0.4375l0 2.359375l-0.828125 0zm0.75 -4.25q0 0.9375 0.375 1.390625q0.375 0.4375 0.921875 0.4375q0.546875 0 0.921875 -0.453125q0.390625 -0.46875 0.390625 -1.4375q0 -0.9375 -0.375 -1.390625q-0.375 -0.453125 -0.90625 -0.453125q-0.53125 0 -0.9375 0.484375q-0.390625 0.484375 -0.390625 1.421875zm4.140991 -0.03125q0 -1.34375 0.75 -1.984375q0.625 -0.546875 1.515625 -0.546875q1.0 0 1.625 0.65625q0.640625 0.65625 0.640625 1.8125q0 0.9375 -0.28125 1.46875q-0.28125 0.53125 -0.8125 0.828125q-0.53125 0.296875 -1.171875 0.296875q-1.015625 0 -1.640625 -0.640625q-0.625 -0.65625 -0.625 -1.890625zm0.84375 0q0 0.9375 0.40625 1.40625q0.40625 0.453125 1.015625 0.453125q0.609375 0 1.015625 -0.46875q0.40625 -0.46875 0.40625 -1.421875q0 -0.890625 -0.40625 -1.34375q-0.40625 -0.46875 -1.015625 -0.46875q-0.609375 0 -1.015625 0.46875q-0.40625 0.453125 -0.40625 1.375zm4.640991 2.421875l0 -4.84375l0.75 0l0 0.6875q0.53125 -0.796875 1.53125 -0.796875q0.4375 0 0.796875 0.171875q0.375 0.15625 0.546875 0.40625q0.1875 0.25 0.265625 0.609375q0.046875 0.21875 0.046875 0.796875l0 2.96875l-0.828125 0l0 -2.9375q0 -0.5 -0.09375 -0.75q-0.09375 -0.25 -0.34375 -0.390625q-0.234375 -0.15625 -0.5625 -0.15625q-0.515625 0 -0.90625 0.328125q-0.375 0.328125 -0.375 1.265625l0 2.640625l-0.828125 0zm8.500366 -1.5625l0.84375 0.109375q-0.1875 0.75 -0.734375 1.15625q-0.546875 0.40625 -1.390625 0.40625q-1.0625 0 -1.6875 -0.65625q-0.609375 -0.65625 -0.609375 -1.828125q0 -1.21875 0.625 -1.890625q0.625 -0.6875 1.625 -0.6875q0.984375 0 1.59375 0.671875q0.609375 0.65625 0.609375 1.859375q0 0.0625 0 0.21875l-3.609375 0q0.046875 0.796875 0.453125 1.21875q0.40625 0.421875 1.015625 0.421875q0.453125 0 0.765625 -0.234375q0.3125 -0.234375 0.5 -0.765625zm-2.6875 -1.328125l2.703125 0q-0.0625 -0.609375 -0.3125 -0.90625q-0.390625 -0.46875 -1.015625 -0.46875q-0.5625 0 -0.953125 0.375q-0.375 0.375 -0.421875 1.0zm4.562866 2.890625l0 -4.84375l0.75 0l0 0.6875q0.53125 -0.796875 1.53125 -0.796875q0.4375 0 0.796875 0.171875q0.375 0.15625 0.546875 0.40625q0.1875 0.25 0.265625 0.609375q0.046875 0.21875 0.046875 0.796875l0 2.96875l-0.828125 0l0 -2.9375q0 -0.5 -0.09375 -0.75q-0.09375 -0.25 -0.34375 -0.390625q-0.234375 -0.15625 -0.5625 -0.15625q-0.515625 0 -0.90625 0.328125q-0.375 0.328125 -0.375 1.265625l0 2.640625l-0.828125 0zm6.984741 -0.734375l0.109375 0.71875q-0.34375 0.078125 -0.609375 0.078125q-0.453125 0 -0.703125 -0.140625q-0.234375 -0.140625 -0.34375 -0.359375q-0.09375 -0.234375 -0.09375 -0.984375l0 -2.78125l-0.609375 0l0 -0.640625l0.609375 0l0 -1.1875l0.8125 -0.5l0 1.6875l0.828125 0l0 0.640625l-0.828125 0l0 2.828125q0 0.359375 0.046875 0.46875q0.046875 0.09375 0.140625 0.15625q0.09375 0.046875 0.28125 0.046875q0.140625 0 0.359375 -0.03125z" fill-rule="nonzero"/><path fill="#000000" fill-opacity="0.0" d="m371.02795 278.6533l73.07086 0l0 30.708649l-73.07086 0z" fill-rule="evenodd"/><path fill="#595959" d="m383.8092 296.61328l0 -0.703125q-0.5625 0.8125 -1.53125 0.8125q-0.421875 0 -0.796875 -0.15625q-0.375 -0.171875 -0.5625 -0.421875q-0.171875 -0.25 -0.25 -0.609375q-0.046875 -0.234375 -0.046875 -0.765625l0 -3.0l0.828125 0l0 2.6875q0 0.640625 0.046875 0.875q0.078125 0.3125 0.328125 0.5q0.25 0.1875 0.609375 0.1875q0.375 0 0.703125 -0.1875q0.328125 -0.1875 0.453125 -0.515625q0.140625 -0.328125 0.140625 -0.953125l0 -2.59375l0.8125 0l0 4.84375l-0.734375 0zm1.6878662 -1.4375l0.8125 -0.140625q0.078125 0.5 0.390625 0.765625q0.3125 0.25 0.859375 0.25q0.578125 0 0.84375 -0.234375q0.28125 -0.234375 0.28125 -0.53125q0 -0.28125 -0.25 -0.4375q-0.171875 -0.109375 -0.84375 -0.28125q-0.890625 -0.234375 -1.25 -0.390625q-0.34375 -0.171875 -0.53125 -0.46875q-0.171875 -0.296875 -0.171875 -0.640625q0 -0.328125 0.140625 -0.59375q0.15625 -0.28125 0.40625 -0.46875q0.203125 -0.140625 0.53125 -0.234375q0.328125 -0.109375 0.703125 -0.109375q0.578125 0 1.0 0.171875q0.4375 0.15625 0.640625 0.4375q0.203125 0.28125 0.28125 0.75l-0.796875 0.109375q-0.0625 -0.375 -0.328125 -0.578125q-0.265625 -0.203125 -0.734375 -0.203125q-0.5625 0 -0.8125 0.1875q-0.234375 0.171875 -0.234375 0.4375q0 0.15625 0.09375 0.28125q0.109375 0.125 0.3125 0.21875q0.125 0.046875 0.734375 0.203125q0.859375 0.234375 1.203125 0.390625q0.34375 0.140625 0.53125 0.421875q0.203125 0.28125 0.203125 0.703125q0 0.40625 -0.234375 0.78125q-0.234375 0.359375 -0.6875 0.5625q-0.453125 0.1875 -1.015625 0.1875q-0.953125 0 -1.453125 -0.390625q-0.484375 -0.390625 -0.625 -1.15625zm8.3046875 -0.125l0.84375 0.109375q-0.1875 0.75 -0.734375 1.15625q-0.546875 0.40625 -1.390625 0.40625q-1.0625 0 -1.6875 -0.65625q-0.609375 -0.65625 -0.609375 -1.828125q0 -1.21875 0.625 -1.890625q0.625 -0.6875 1.625 -0.6875q0.984375 0 1.59375 0.671875q0.609375 0.65625 0.609375 1.859375q0 0.0625 0 0.21875l-3.609375 0q0.046875 0.796875 0.453125 1.21875q0.40625 0.421875 1.015625 0.421875q0.453125 0 0.765625 -0.234375q0.3125 -0.234375 0.5 -0.765625zm-2.6875 -1.328125l2.703125 0q-0.0625 -0.609375 -0.3125 -0.90625q-0.390625 -0.46875 -1.015625 -0.46875q-0.5625 0 -0.953125 0.375q-0.375 0.375 -0.421875 1.0zm9.437866 0.546875l0.890625 0.21875q-0.28125 1.09375 -1.015625 1.671875q-0.71875 0.5625 -1.75 0.5625q-1.09375 0 -1.765625 -0.4375q-0.671875 -0.4375 -1.03125 -1.265625q-0.34375 -0.84375 -0.34375 -1.796875q0 -1.046875 0.390625 -1.8125q0.40625 -0.78125 1.140625 -1.1875q0.734375 -0.40625 1.609375 -0.40625q1.015625 0 1.6875 0.515625q0.6875 0.515625 0.953125 1.4375l-0.859375 0.203125q-0.234375 -0.734375 -0.6875 -1.0625q-0.4375 -0.328125 -1.109375 -0.328125q-0.765625 0 -1.28125 0.375q-0.515625 0.359375 -0.734375 0.984375q-0.203125 0.625 -0.203125 1.28125q0 0.84375 0.25 1.484375q0.25 0.640625 0.765625 0.953125q0.53125 0.3125 1.140625 0.3125q0.734375 0 1.25 -0.421875q0.515625 -0.4375 0.703125 -1.28125zm1.5646057 -0.078125q0 -1.34375 0.75 -1.984375q0.625 -0.546875 1.515625 -0.546875q1.0 0 1.625 0.65625q0.640625 0.65625 0.640625 1.8125q0 0.9375 -0.28125 1.46875q-0.28125 0.53125 -0.8125 0.828125q-0.53125 0.296875 -1.171875 0.296875q-1.015625 0 -1.640625 -0.640625q-0.625 -0.65625 -0.625 -1.890625zm0.84375 0q0 0.9375 0.40625 1.40625q0.40625 0.453125 1.015625 0.453125q0.609375 0 1.015625 -0.46875q0.40625 -0.46875 0.40625 -1.421875q0 -0.890625 -0.40625 -1.34375q-0.40625 -0.46875 -1.015625 -0.46875q-0.609375 0 -1.015625 0.46875q-0.40625 0.453125 -0.40625 1.375zm4.640991 2.421875l0 -4.84375l0.75 0l0 0.6875q0.53125 -0.796875 1.53125 -0.796875q0.4375 0 0.796875 0.171875q0.375 0.15625 0.546875 0.40625q0.1875 0.25 0.265625 0.609375q0.046875 0.21875 0.046875 0.796875l0 2.96875l-0.828125 0l0 -2.9375q0 -0.5 -0.09375 -0.75q-0.09375 -0.25 -0.34375 -0.390625q-0.234375 -0.15625 -0.5625 -0.15625q-0.515625 0 -0.90625 0.328125q-0.375 0.328125 -0.375 1.265625l0 2.640625l-0.828125 0zm6.984741 -0.734375l0.109375 0.71875q-0.34375 0.078125 -0.609375 0.078125q-0.453125 0 -0.703125 -0.140625q-0.234375 -0.140625 -0.34375 -0.359375q-0.09375 -0.234375 -0.09375 -0.984375l0 -2.78125l-0.609375 0l0 -0.640625l0.609375 0l0 -1.1875l0.8125 -0.5l0 1.6875l0.828125 0l0 0.640625l-0.828125 0l0 2.828125q0 0.359375 0.046875 0.46875q0.046875 0.09375 0.140625 0.15625q0.09375 0.046875 0.28125 0.046875q0.140625 0 0.359375 -0.03125zm4.1072693 -0.828125l0.84375 0.109375q-0.1875 0.75 -0.734375 1.15625q-0.546875 0.40625 -1.390625 0.40625q-1.0625 0 -1.6875 -0.65625q-0.609375 -0.65625 -0.609375 -1.828125q0 -1.21875 0.625 -1.890625q0.625 -0.6875 1.625 -0.6875q0.984375 0 1.59375 0.671875q0.609375 0.65625 0.609375 1.859375q0 0.0625 0 0.21875l-3.609375 0q0.046875 0.796875 0.453125 1.21875q0.40625 0.421875 1.015625 0.421875q0.453125 0 0.765625 -0.234375q0.3125 -0.234375 0.5 -0.765625zm-2.6875 -1.328125l2.703125 0q-0.0625 -0.609375 -0.3125 -0.90625q-0.390625 -0.46875 -1.015625 -0.46875q-0.5625 0 -0.953125 0.375q-0.375 0.375 -0.421875 1.0zm4.015991 2.890625l1.765625 -2.515625l-1.625 -2.328125l1.015625 0l0.75 1.140625q0.203125 0.328125 0.34375 0.546875q0.1875 -0.3125 0.359375 -0.53125l0.8125 -1.15625l0.984375 0l-1.671875 2.28125l1.796875 2.5625l-1.0 0l-1.0 -1.5l-0.265625 -0.40625l-1.265625 1.90625l-1.0 0zm7.0078125 -0.734375l0.109375 0.71875q-0.34375 0.078125 -0.609375 0.078125q-0.453125 0 -0.703125 -0.140625q-0.234375 -0.140625 -0.34375 -0.359375q-0.09375 -0.234375 -0.09375 -0.984375l0 -2.78125l-0.609375 0l0 -0.640625l0.609375 0l0 -1.1875l0.8125 -0.5l0 1.6875l0.828125 0l0 0.640625l-0.828125 0l0 2.828125q0 0.359375 0.046875 0.46875q0.046875 0.09375 0.140625 0.15625q0.09375 0.046875 0.28125 0.046875q0.140625 0 0.359375 -0.03125zm2.3729248 2.703125q-0.6875 -0.859375 -1.15625 -2.0q-0.46875 -1.15625 -0.46875 -2.390625q0 -1.078125 0.359375 -2.078125q0.40625 -1.140625 1.265625 -2.296875l0.578125 0q-0.546875 0.953125 -0.71875 1.359375q-0.28125 0.625 -0.4375 1.3125q-0.203125 0.84375 -0.203125 1.71875q0 2.1875 1.359375 4.375l-0.578125 0zm2.0750732 0l-0.59375 0q1.359375 -2.1875 1.359375 -4.375q0 -0.859375 -0.1875 -1.703125q-0.15625 -0.6875 -0.4375 -1.3125q-0.171875 -0.40625 -0.734375 -1.375l0.59375 0q0.859375 1.15625 1.265625 2.296875q0.34375 1.0 0.34375 2.078125q0 1.234375 -0.46875 2.390625q-0.46875 1.140625 -1.140625 2.0z" fill-rule="nonzero"/><path fill="#000000" fill-opacity="0.0" d="m350.89795 170.5538l-1.5433044 242.67715" fill-rule="evenodd"/><path stroke="#595959" stroke-width="1.0" stroke-linejoin="round" stroke-linecap="butt" d="m350.89795 170.5538l-1.5433044 242.67715" fill-rule="evenodd"/></g></svg>